<?xml version="1.0" standalone="no"?>
<!DOCTYPE svg PUBLIC "-//W3C//DTD SVG 1.1//EN" "http://www.w3.org/Graphics/SVG/1.1/DTD/svg11.dtd" >
<!--
2013-9-30: Created.
-->
<svg>
<metadata>
Created by iconfont
</metadata>
<defs>

<font id="iconfont" horiz-adv-x="1024" >
  <font-face
    font-family="iconfont"
    font-weight="500"
    font-stretch="normal"
    units-per-em="1024"
    ascent="896"
    descent="-128"
  />
    <missing-glyph />
    
    <glyph glyph-name="qgpt" unicode="&#59052;" d="M848.0768 896c24.644267 0 44.6464-19.933867 44.6464-44.509867V495.274667h223.232c24.576 0 44.578133-19.8656 44.578133-44.509867v-400.725333A178.517333 178.517333 0 0 0 982.016-128c-10.24 0-20.002133 1.365333-29.764267 3.003733a43.758933 43.758933 0 0 0-14.882133-3.003733H178.517333A178.517333 178.517333 0 0 0 0 50.107733V851.490133C0 876.066133 20.002133 896 44.6464 896z m223.232-489.745067h-178.5856v-356.1472a85.8112 85.8112 0 0 1 5.12-28.535466c8.738133-24.917333 28.330667-45.533867 54.613333-54.8864l0.955734-0.546134c9.0112-3.072 18.432-5.12 28.603733-5.12 49.152 0 89.224533 39.936 89.224533 89.088V406.254933zM319.556267 247.739733H230.331733a44.578133 44.578133 0 1 1 0-89.019733h89.2928a44.578133 44.578133 0 1 1 0 89.019733z m171.349333 231.560534H223.232a44.578133 44.578133 0 1 1 0-89.088h267.810133a44.578133 44.578133 0 1 1 0 89.088z m0 194.082133H223.232a44.578133 44.578133 0 1 1 0-89.019733h267.810133a44.578133 44.578133 0 1 1 0 89.019733z"  horiz-adv-x="1160" />

    
    <glyph glyph-name="gzb_icon" unicode="&#59050;" d="M1109.333333 896v-1024H0V896h1109.333333zM324.949333 178.602667H98.218667v-202.325334h226.730666V178.602667z m339.456 0H423.168v-202.325334h241.237333V178.602667z m346.624 0H762.624v-202.325334h248.490667l-0.085334 202.325334z m-686.08 306.602666H98.218667v-202.325333h226.730666V485.205333z m339.456 0H423.168v-202.325333h241.237333V485.205333z m346.624 0H762.624v-202.325333h248.405333V485.205333z m0.085334 306.517334H98.218667v-202.24h912.810666l0.085334 202.24z"  horiz-adv-x="1109" />

    
    <glyph glyph-name="zhls_icon" unicode="&#59051;" d="M940.617143 896v-1020.928H36.571429V896h904.045714z m-85.577143-85.577143H122.148571v-849.773714h732.891429V810.422857zM634.660571 165.302857v-85.650286H245.028571v85.577143h389.705143zM732.16 428.251429v-85.577143H245.028571v85.577143h487.131429zM517.851429 691.419429v-85.577143H225.499429v85.577143H517.851429z"  horiz-adv-x="1024" />

    
    <glyph glyph-name="examine_revoke_icon" unicode="&#59049;" d="M512 896a512 512 0 1 0 0-1024A512 512 0 0 0 512 896z m0-714.386286a35.693714 35.693714 0 1 1 0-71.460571 35.693714 35.693714 0 0 1 0 71.460571z m0 476.233143a35.693714 35.693714 0 0 1-35.693714-35.693714v-333.385143a35.693714 35.693714 0 1 1 71.387428 0V622.153143A35.693714 35.693714 0 0 1 512 657.846857z"  horiz-adv-x="1024" />

    
    <glyph glyph-name="Import_icon" unicode="&#59048;" d="M113.493333 252.074667v-270.506667h882.346667v270.506667H1109.333333V-128H0V252.074667h113.493333zM611.328 896l-0.085333-522.922667 186.197333 181.162667 75.178667-72.533333L554.666667 172.885333l-318.037334 308.906667 75.178667 72.448L497.92 372.906667V896h113.493333z"  horiz-adv-x="1109" />

    
    <glyph glyph-name="gaowei" unicode="&#59047;" d="M494.933333 827.733333l20.957867-15.9744s55.842133-38.741333 139.639467-73.045333c78.848-30.890667 157.696-33.928533 162.679466-34.133333H853.333333v-358.263467C853.333333 166.0928 620.612267-25.6 494.933333-25.6 369.322667-25.6 136.533333 166.0928 136.533333 346.3168V706.7648h35.84c9.557333 0.1024 85.777067 2.184533 161.9968 34.2016 83.7632 34.235733 139.605333 73.079467 139.605334 73.079467L494.933333 827.733333z m103.424-259.413333l-221.4912-163.328 64.989867-17.408L391.509333 199.68l221.4912 163.328-65.024 17.442133L598.357333 568.32z"  horiz-adv-x="1024" />

    
    <glyph glyph-name="population" unicode="&#59046;" d="M429.843692 392.585846a250.643692 250.643692 0 0 1 248.123077 248.123077A247.886769 247.886769 0 0 1 429.843692 888.910769a247.886769 247.886769 0 0 1-248.123077-248.123077 247.886769 247.886769 0 0 1 248.123077-248.123077z m0 403.377231A162.264615 162.264615 0 0 0 589.193846 636.534154 159.428923 159.428923 0 1 0 429.843692 795.963077z m412.435693-852.598154A417.161846 417.161846 0 0 1 421.415385 356.509538 417.161846 417.161846 0 0 1 8.349538-64.196923c0-24.260923 20.164923-44.425846 44.425847-44.425846a44.662154 44.662154 0 0 1 44.347077 44.425846C99.170462 113.821538 243.396923 258.756923 421.415385 260.174769a328.073846 328.073846 0 0 0 331.382153-324.371692v-4.883692c1.339077-22.843077 21.425231-40.96 44.347077-39.542154h4.804923a42.377846 42.377846 0 0 1 39.542154 44.425846c0.708923 2.756923 0.708923 4.804923 0.708923 7.561846z m395.106461 144.935385a311.847385 311.847385 0 0 1-310.587077 310.508307 325.553231 325.553231 0 0 1-177.388307-57.501538 44.898462 44.898462 0 0 1-9.058462-62.385231 44.898462 44.898462 0 0 1 62.385231-9.058461 235.598769 235.598769 0 0 0 128.236307 40.172307 222.916923 222.916923 0 0 0 221.814154-221.735384v-4.883693c1.417846-22.843077 21.504-40.96 44.347077-39.542153 4.174769-0.630154 8.349538 0 12.524308 0.787692a36.233846 36.233846 0 0 1 27.726769 43.638154z m-305.703384 310.508307a190.542769 190.542769 0 0 1 190.621538 190.621539 190.542769 190.542769 0 0 1-190.621538 190.621538 190.542769 190.542769 0 0 1-190.621539-190.621538 192.275692 192.275692 0 0 1 190.621539-190.621539z m0 288.295385c56.162462 0 101.927385-45.686154 101.927384-101.848615s-45.764923-101.848615-101.927384-101.848616c-56.162462 0-101.927385 45.686154-101.927385 101.848616a102.951385 102.951385 0 0 0 101.927385 101.927384z"  horiz-adv-x="1260" />

    
    <glyph glyph-name="bumen" unicode="&#59044;" d="M876.544 172.617143V384H537.819429V595.382857a130.267429 130.267429 0 1 1-52.150858 0V384H147.017143v-211.382857a130.267429 130.267429 0 1 1 52.077714 0V331.849143h625.371429V172.617143a130.267429 130.267429 0 1 1 52.150857 0z"  horiz-adv-x="1024" />

    
    <glyph glyph-name="danwei" unicode="&#59045;" d="M654.429091 549.143273c27.741091 0 48.779636-16.290909 70.935273-36.026182l371.246545-329.448727v-241.012364c0-10.146909-4.002909-20.293818-12.008727-27.927273a41.518545 41.518545 0 0 0-28.858182-11.729454H819.572364a20.759273 20.759273 0 0 0-14.522182 5.864727 19.456 19.456 0 0 0-5.957818 13.963636V96.814545a19.549091 19.549091 0 0 1-6.050909 13.963637 20.759273 20.759273 0 0 1-14.429091 5.864727H518.702545a20.759273 20.759273 0 0 1-14.522181-5.771636 19.362909 19.362909 0 0 1-5.957819-13.963637v-174.08a19.362909 19.362909 0 0 0-6.050909-13.963636 20.759273 20.759273 0 0 0-14.522181-5.864727H246.411636a41.518545 41.518545 0 0 0-28.951272 11.636363 38.912 38.912 0 0 0-12.101819 28.020364V185.902545c65.163636 56.785455 370.501818 324.235636 373.66691 327.214546 19.828364 17.501091 47.476364 36.026182 75.403636 36.026182zM652.753455 826.181818c34.909091 0.372364 64.605091-10.798545 89.18109-33.512727 4.747636-3.723636 14.708364-12.660364 29.789091-26.717091l55.296-51.2 36.584728-33.698909 36.584727-33.792 82.106182-75.589818 40.96-37.608728 40.587636-37.98109 19.549091-18.245819c19.083636-17.873455 36.957091-34.257455 53.620364-49.338181 22.155636-20.014545 40.773818-37.236364 55.854545-51.665455l29.789091-28.392727c16.663273-15.173818 25.320727-31.837091 26.158545-49.989818a55.389091 55.389091 0 0 0-19.083636-45.521455 73.541818 73.541818 0 0 0-52.317091-18.152727c-19.828364 0.744727-35.746909 6.050909-47.662545 15.825454a1028.189091 1028.189091 0 0 0-36.305455 31.837091l-72.610909 65.349818a27863.970909 27863.970909 0 0 0-90.298182 81.826909l-45.521454 41.239273-45.614546 41.146182-16.570182 14.987636-57.157818 52.037819c-20.573091 18.897455-33.698909 30.72-39.191272 35.188363-25.413818 21.969455-50.455273 32.581818-75.031273 31.837091-24.576-0.744727-48.779636-11.357091-72.610909-31.837091l-44.590546-39.098182c-21.783273-19.362909-46.917818-41.890909-75.496727-67.677091-29.975273-26.996364-60.136727-53.992727-90.391273-80.616727l-23.272727-20.666182c-22.993455-20.293818-44.497455-39.563636-64.791273-57.716363a8161.652364 8161.652364 0 0 0-86.481454-76.706909l-11.636364-9.960728a192.698182 192.698182 0 0 0-6.516364-5.399272c-11.915636-9.029818-27.834182-13.963636-47.662545-14.801455a71.959273 71.959273 0 0 0-51.2 17.035636 59.392 59.392 0 0 0-22.528 49.431273 62.277818 62.277818 0 0 0 20.200727 46.08c4.747636 4.561455 19.456 17.780364 44.032 39.749818l88.064 78.382546 26.065455 23.179636 83.968 74.472727 28.858182 25.786182c28.485818 25.227636 55.296 49.338182 80.616727 71.959273 33.698909 30.347636 62.650182 56.32 86.853818 77.824 24.203636 21.597091 38.167273 34.350545 42.263273 38.167273 30.068364 27.927273 62.650182 42.170182 97.559273 42.542545z"  horiz-adv-x="1303" />

    
    <glyph glyph-name="video" unicode="&#59042;" d="M1095.837538 859.844923a130.756923 130.756923 0 0 0 130.284308-119.414154l0.472616-11.342769-0.07877-62.542769 122.801231 59.234461a89.009231 89.009231 0 0 0 108.701539-25.206154l5.513846-7.719384 4.647384-8.507077c4.332308-9.058462 7.168-18.747077 8.27077-28.750769l0.551384-10.003693v-461.272615a89.009231 89.009231 0 0 0-118.468923-83.968l-9.216 3.938462-122.801231 59.31323v-102.4a130.756923 130.756923 0 0 0-107.756307-128.708923l-11.657847-1.575384-11.264-0.472616H177.388308A130.756923 130.756923 0 0 0 47.261538 50.018462l-0.472615 11.264v667.963076A130.756923 130.756923 0 0 0 166.124308 859.293538l11.342769 0.472616h918.370461z m0-94.523077H177.388308a36.233846 36.233846 0 0 1-35.603693-29.696l-0.551384-6.537846v-667.884308a36.233846 36.233846 0 0 1 29.696-35.682461l6.537846-0.551385h918.370461a36.233846 36.233846 0 0 1 35.603693 29.696l0.630154 6.537846v667.963077a36.233846 36.233846 0 0 1-29.77477 35.603693l-6.459077 0.551384z m-558.473846-110.513231l11.579077-0.787692c11.421538-1.417846 22.528-5.198769 32.610462-10.948923l292.233846-166.990769a89.009231 89.009231 0 0 0 0-154.466462l-292.233846-166.990769a89.009231 89.009231 0 0 0-133.12 77.193846v333.981539c0 49.230769 39.857231 89.009231 89.009231 89.00923z m845.115077-17.880615l-153.678769-74.279385V267.421538l153.678769-74.279384V636.928zM542.877538 556.347077V241.427692l275.53477 157.459693-275.53477 157.459692z"  horiz-adv-x="1496" />

    
    <glyph glyph-name="chart" unicode="&#59043;" d="M441.617067 735.982933C209.3056 735.982933 19.114667 545.928533 19.114667 313.685333c0-232.311467 190.122667-422.434133 422.434133-422.434133 232.311467 0 422.365867 190.122667 422.365867 422.434133 0 21.162667-14.062933 35.157333-35.157334 35.157334H476.7744V700.8256c0 21.0944-14.062933 35.157333-35.157333 35.157333z m351.982933-457.591466c-21.162667-193.604267-193.604267-334.370133-387.208533-313.275734-193.604267 21.162667-334.370133 193.604267-313.275734 387.208534a352.119467 352.119467 0 0 0 313.344 313.275733v-351.982933c0-21.162667 13.994667-35.2256 35.157334-35.2256h351.982933zM582.382933 876.817067c-21.162667 0-35.157333-14.1312-35.157333-35.2256v-387.208534c0-21.162667 14.062933-35.157333 35.157333-35.157333h387.208534c21.162667 0 35.2256 14.062933 35.2256 35.157333C1004.817067 686.6944 814.6944 876.885333 582.314667 876.885333z m35.2256-387.208534v316.757334a352.733867 352.733867 0 0 0 316.757334-316.757334h-316.757334z"  horiz-adv-x="1024" />

    
    <glyph glyph-name="set_icon1" unicode="&#59041;" d="M820.508444 876.657778a56.888889 56.888889 0 0 0 49.265778-28.444445L1121.28 412.444444a56.888889 56.888889 0 0 0 0-56.888888l-251.562667-435.768889a56.888889 56.888889 0 0 0-49.265777-28.444445H317.269333a56.888889 56.888889 0 0 0-49.265777 28.444445L16.497778 355.555556a56.888889 56.888889 0 0 0 0 56.888888L267.946667 848.213333a56.888889 56.888889 0 0 0 49.265777 28.444445h503.239112z m-22.983111-96.654222H340.309333L111.672889 384l228.636444-395.946667h457.216L1026.161778 384l-228.636445 396.003556zM568.888889 566.044444a182.044444 182.044444 0 1 0 0-364.088888 182.044444 182.044444 0 0 0 0 364.088888z m0-96.711111a85.333333 85.333333 0 1 1 0-170.666666 85.333333 85.333333 0 0 1 0 170.666666z"  horiz-adv-x="1137" />

    
    <glyph glyph-name="fxyj_icon_3" unicode="&#59035;" d="M568.888889-128L0 896h1137.777778z"  horiz-adv-x="1137" />

    
    <glyph glyph-name="fxyj_icon_4" unicode="&#59036;" d="M652.16512-24.41216v-103.46496H330.5472V-24.3712h321.536z m209.83808 729.78432c27.56608 0 50.3808-25.43616 53.00224-57.67168l0.24576-6.144v-541.36832c0-33.01376-21.21728-60.416-48.128-63.488l-5.12-0.32768H91.46368c-27.52512 0-50.3808 25.47712-53.00224 57.71264l-0.24576 6.144V641.51552c0 33.01376 21.25824 60.416 48.16896 63.52896l5.07904 0.28672h770.53952zM977.14176 857.41568c30.3104 0 55.05024-30.02368 55.05024-66.72384v-565.94432c0-36.70016-24.7808-66.72384-55.00928-66.72384h-37.19168v55.9104h37.19168V790.69184H180.92032v-50.62656H125.99296V790.69184c0 36.70016 24.73984 66.7648 55.00928 66.7648z m-118.45632-210.78016H94.78144V197.2224h763.904V646.5536z"  horiz-adv-x="1064" />

    
    <glyph glyph-name="fxyj_icon_5" unicode="&#59037;" d="M921.559042 495.328834C921.559042 727.560422 749.228459 896 511.979521 896 286.147613 896 102.4 716.296985 102.4 495.328834c0-163.115044 226.497475-439.376431 348.244988-587.797811l9.010749-10.956252c12.79936-15.564022 31.896005-24.523574 52.477376-24.523574 20.427779 0 39.524424 8.959552 52.426179 24.574772l9.010749 10.905054C695.061567 56.0036 921.559042 332.213789 921.559042 495.328834z m-411.678616-116.115795c-83.554222 0-151.39083 66.351882-151.39083 148.062997 0 81.711114 67.836608 148.062997 151.39083 148.062997 83.451827 0 151.339633-66.351882 151.339633-148.062997 0-81.711114-67.836608-148.062997-151.339633-148.062997z"  horiz-adv-x="1024" />

    
    <glyph glyph-name="fxyj_icon_2" unicode="&#59038;" d="M224.093408 535.184601c59.121548 0 118.015706 0.227391 177.023559-0.227391 9.550404 0 13.302348 2.842382 16.258426 11.369528 36.041406 106.191397 72.423897 212.382793 108.920084 318.460495a43.772685 43.772685 0 0 0 60.258501 26.604697c14.439301-5.912155 21.147323-17.395379 25.80883-30.925118 35.586624-104.485967 71.62803-208.744544 106.873568-313.344207 3.183468-9.664099 7.617584-12.165396 17.85016-12.165395 114.491153 0.568476 228.982305 0.795867 343.473458 0.909562 7.731279 0 15.689949-0.113695 23.193838-1.591734a38.656397 38.656397 0 0 0 31.493594-29.219688 35.814015 35.814015 0 0 0-11.596919-39.338569c-9.550404-8.186061-20.237761-15.007778-30.697727-22.056885C1005.066324 383.628785 917.293564 323.370284 829.066022 263.793954c-7.276498-4.888897-8.640842-9.095623-5.798459-17.054293 36.609882-105.281834 72.878678-210.677364 109.147474-316.072894 7.844975-22.511667 3.410859-38.542702-13.416044-50.253316-17.281683-11.938005-36.268796-11.255833-55.938081 2.273906-94.935563 65.261094-189.984822 130.522188-284.692995 196.124367-7.844975 5.343678-12.506481 5.002593-19.896674-0.22739-95.162954-65.715875-190.780689-130.749578-285.602558-196.692844-31.83468-22.170581-65.488484-2.614992-70.491077 21.261018a55.255909 55.255909 0 0 0 2.273906 27.96904c35.814015 104.372272 71.969116 208.744544 108.806388 312.662036 3.86564 11.028443 1.478039 15.91734-7.95867 22.17058-94.935563 64.124141-189.530041 128.589368-284.238214 193.054595-18.873417 12.961263-25.126658 29.219688-18.759722 47.865715 6.366936 18.418636 22.284276 28.878603 44.682247 28.992298h177.02356v-0.682171z"  horiz-adv-x="1137" />

    
    <glyph glyph-name="fxyj_icon_1" unicode="&#59039;" d="M697.571556 371.768889a16.327111 16.327111 0 0 0-4.380445 8.647111V741.034667c0 28.046222-8.760889 56.149333-26.168889 79.872C647.224889 846.848 621.056 868.408889 588.231111 879.217778 522.808889 905.102222 448.512 900.835556 387.299556 864.085333c-19.626667-10.808889-37.091556-28.046222-50.232889-49.664A139.832889 139.832889 0 0 1 315.221333 736.711111v-356.295111a16.440889 16.440889 0 0 0-4.323555-10.808889 272.042667 272.042667 0 0 1-76.458667-252.586667c30.549333-140.401778 166.001778-233.244444 310.215111-211.626666a255.601778 255.601778 0 0 1 141.937778 66.901333 268.060444 268.060444 0 0 1 89.6 246.215111c-6.542222 58.254222-34.929778 112.241778-78.620444 153.258667z m6.542222-226.702222c-8.760889-53.987556-39.367111-103.651556-85.219556-133.859556-25.6-17.066667-54.727111-28.103111-85.162666-32.426667a197.632 197.632 0 0 0-155.136 43.235556 187.107556 187.107556 0 0 0-69.973334 114.346667c-15.246222 71.281778 10.979556 144.725333 67.754667 192.284444a36.636444 36.636444 0 0 1 13.084444 12.913778 29.582222 29.582222 0 0 1 0 19.456V736.711111c0 25.884444 13.141333 51.768889 34.986667 64.739556 28.444444 17.294222 63.374222 25.941333 96.142222 21.617777 26.168889-2.161778 50.232889-10.808889 69.973334-25.884444 19.626667-15.132444 30.549333-36.693333 30.549333-58.311111v-388.664889c0.056889-3.982222 1.592889-7.850667 4.323555-10.808889 28.16-21.617778 50.631111-49.834667 65.592889-82.033778 15.246222-36.693333 19.626667-75.605333 13.084445-112.298666z m-137.671111 155.477333c-4.323556 2.161778-6.542222 4.266667-6.542223 8.590222V527.246222c0 15.132444-6.542222 28.103111-19.626666 34.531556A70.712889 70.712889 0 0 1 481.28 568.32a43.349333 43.349333 0 0 1-34.929778-47.502222v-213.731556c0-4.323556-2.218667-6.485333-4.380444-8.647111-69.973333-32.426667-100.465778-116.622222-67.697778-185.685333 32.711111-69.12 117.930667-99.328 187.847111-66.958222 54.613333 25.884444 87.381333 82.033778 78.620445 142.506666-2.161778 51.825778-30.549333 92.842667-74.24 112.298667z"  horiz-adv-x="1024" />

    
    <glyph glyph-name="fxyj_icon_6" unicode="&#59040;" d="M1550.7456 896H102.6048a102.4 102.4 0 0 1-72.4992-174.8992L681.984 69.4272a204.8 204.8 0 0 1 289.792 0L1623.2448 721.1008A102.4 102.4 0 0 1 1550.7456 896z"  horiz-adv-x="1653" />

    
    <glyph glyph-name="pzzl_icon" unicode="&#59032;" d="M186.210462 244.342154h93.026461V337.526154H186.210462v-93.105231z m186.131692-186.131692H465.526154V151.236923H372.342154v-93.026461zM335.163077 896v-148.873846h353.673846V896h93.105231v-148.873846H1024V-128H0V747.126154h241.979077V896h93.184zM241.979077 654.020923h-148.873846v-688.915692h837.789538V653.942154h-148.873846v-74.436923H688.758154v74.515692h-353.673846v-74.515692H242.057846l-0.078769 74.515692z m130.363077-409.6H465.526154V337.368615H372.342154v-93.10523z m-186.131692-186.210461h93.026461V151.236923H186.210462v-93.026461zM558.473846 244.342154h93.105231V337.526154H558.473846v-93.105231z m0-186.131692h93.105231V151.236923H558.473846v-93.026461z m186.210462 186.131692h93.026461V337.526154H744.763077v-93.105231zM167.542154 411.963077h688.915692V504.989538H167.542154v-93.026461z m577.220923-353.752615h93.026461V151.236923H744.763077v-93.026461z"  horiz-adv-x="1024" />

    
    <glyph glyph-name="glkh_icon" unicode="&#59033;" d="M570.514286 42.715429c-210.066286 0-380.342857 152.722286-380.342857 341.284571 0 188.562286 170.276571 341.284571 380.342857 341.284571h437.686857V896H570.514286C255.414857 896 0 666.770286 0 384S255.414857-128 570.514286-128h437.833143V42.715429H570.514286z m628.736 682.569142V896H1623.771429C1938.870857 896 2194.285714 666.770286 2194.285714 384S1938.870857-128 1623.771429-128H1199.542857V42.715429h424.228572c210.066286 0 380.342857 152.722286 380.342857 341.284571 0 188.562286-170.276571 341.284571-380.342857 341.284571H1199.250286z m148.041143-250.148571c37.010286 0 71.094857-17.700571 89.526857-46.372571a84.553143 84.553143 0 0 0 0-92.745143 105.910857 105.910857 0 0 0-89.526857-46.226286H844.361143c-57.051429 0-103.131429 41.398857-103.131429 92.598857 0 51.2 46.226286 92.598857 103.131429 92.598857H1347.291429z"  horiz-adv-x="2194" />

    
    <glyph glyph-name="fjpz_icon" unicode="&#59034;" d="M987.465143 830.171429v-830.756572c0-137.581714-108.763429-106.934857-137.654857-83.748571L693.796571 29.988571l-134.582857-127.926857c-30.939429-30.354286-56.32-30.354286-92.598857 0l-144.091428 128.073143-146.212572-114.468571c-40.228571-33.572571-139.702857-54.198857-139.702857 86.089143V773.266286 830.171429h950.857143zM127.670857 738.304v-741.668571l159.378286 128.365714c24.576 20.626286 42.203429 20.260571 66.998857 0l157.257143-139.264 144.164571 132.461714c24.429714 24.137143 49.517714 25.6 76.068572 4.315429l164.864-128.146286V738.304H127.670857z m590.043429-384.585143v-68.900571H306.358857V376.685714h411.355429v-22.966857z m0 221.257143v-91.867429H306.432V574.976H717.568z"  horiz-adv-x="1024" />

    
    <glyph glyph-name="cxpj_icon_1" unicode="&#59030;" d="M800.028444 217.088l78.336-65.991111-75.889777-90.282667-28.103111-33.393778-25.827556-31.004444-18.204444-22.243556-8.305778-10.24-8.760889-8.078222-9.671111-7.054222-17.180445-9.898667c-7.224889-3.128889-14.051556-6.485333-21.333333-9.216l-10.410667-4.380444-10.638222-3.697778-7.395555-2.730667-7.509334-2.389333-3.925333-0.739555c-4.835556-0.568889-8.078222 0.227556-10.24 2.275555a18.944 18.944 0 0 0-3.299556 10.695111l0.398223 3.811556 0.341333 2.730666 1.024 7.850667 0.682667 5.006222 4.152888 21.390223 4.721778 20.707555 1.592889 6.826667 1.934222 6.826666 3.242667 7.395556c1.592889 3.128889 3.470222 6.200889 5.575111 9.102222l3.356445 4.152889 10.24 12.060445 19.342222 23.438222 25.884444 31.345778 28.046222 33.962666 77.824 91.761778zM824.888889 896a56.888889 56.888889 0 0 0 56.888889-56.888889v-452.551111L506.823111-71.111111H142.222222a56.888889 56.888889 0 0 0-56.888889 56.888889V839.111111a56.888889 56.888889 0 0 0 56.888889 56.888889h682.666667z m41.472-616.675556l6.940444-0.227555a45.511111 45.511111 0 0 0 9.102223-1.934222l4.380444-1.706667 7.054222-3.527111c3.072-1.820444 5.916444-3.868444 8.647111-6.144l3.868445-3.640889 5.745778-4.949333a56.718222 56.718222 0 0 0 14.904888-25.884445l1.422223-7.509333a27.249778 27.249778 0 0 0-4.152889-17.066667l-2.730667-3.527111-7.111111-8.647111-5.347556-7.111111-2.673777-3.015111-2.844445-2.730667-79.075555 65.934222 5.461333 5.575111 5.12 5.859556 10.012444 10.353778a26.965333 26.965333 0 0 0 11.776 8.362666l4.608 1.137778 4.892445 0.398222zM711.111111 440.888889H256a56.888889 56.888889 0 0 1-6.656-113.379556L256 327.111111h455.111111a56.888889 56.888889 0 0 1 0 113.777778z m0 227.555555H256a56.888889 56.888889 0 0 1-6.656-113.379555L256 554.666667h455.111111a56.888889 56.888889 0 0 1 0 113.777777z"  horiz-adv-x="1024" />

    
    <glyph glyph-name="yjzh_icon_1" unicode="&#59031;" d="M206.279111 771.413333L173.511111 669.240889a128.568889 128.568889 0 0 1 18.375111-114.631111c21.959111-30.151111 56.206222-49.208889 93.070222-52.167111l10.126223-0.398223h434.232889a128 128 0 0 1 121.514666 167.424l-3.413333 9.386667-29.696 92.558222h49.948444a42.666667 42.666667 0 0 0 42.154667-36.864L910.222222 728.746667v-814.08a42.666667 42.666667 0 0 0-36.807111-42.268445l-5.745778-0.398222H156.330667a42.609778 42.609778 0 0 0-42.154667 36.864L113.777778-85.333333V728.746667a42.666667 42.666667 0 0 0 36.807111 42.268444l5.745778 0.398222h49.948444z m350.264889-406.755555l-177.720889-177.891556c-7.395556-7.395556-2.275556-20.195556 8.192-20.195555h95.232l-31.175111-136.704c-2.616889-11.548444 11.320889-19.399111 19.626667-11.036445l177.720889 177.891556c7.452444 7.395556 2.275556 20.252444-8.192 20.252444H544.938667l31.232 136.647111c2.616889 11.548444-11.264 19.399111-19.626667 11.093334zM512 896a42.666667 42.666667 0 0 0 42.552889-42.666667v-8.078222H673.564444c18.432 0 34.872889-11.946667 40.504889-29.582222l53.589334-167.082667a42.666667 42.666667 0 0 0-38.343111-61.269333H295.139556a42.609778 42.609778 0 0 0-40.504889 55.751111l55.352889 172.600889c5.688889 17.635556 22.016 29.582222 40.561777 29.582222h118.897778V853.333333A42.666667 42.666667 0 0 0 512 896z"  horiz-adv-x="1024" />

    
    <glyph glyph-name="jkt_icon_2" unicode="&#59029;" d="M921.559042 495.328834C921.559042 727.560422 749.228459 896 511.979521 896 286.147613 896 102.4 716.296985 102.4 495.328834c0-163.115044 226.497475-439.376431 348.244988-587.797811l9.010749-10.956252c12.79936-15.564022 31.896005-24.523574 52.477376-24.523574 20.427779 0 39.524424 8.959552 52.426179 24.574772l9.010749 10.905054C695.061567 56.0036 921.559042 332.213789 921.559042 495.328834z m-411.678616-116.115795c-83.554222 0-151.39083 66.351882-151.39083 148.062997 0 81.711114 67.836608 148.062997 151.39083 148.062997 83.451827 0 151.339633-66.351882 151.339633-148.062997 0-81.711114-67.836608-148.062997-151.339633-148.062997z"  horiz-adv-x="1024" />

    
    <glyph glyph-name="jgry_icon_2" unicode="&#59028;" d="M178.801778 638.293333H282.737778v-49.948444c0-52.394667 42.097778-95.402667 95.516444-99.555556l8.533334-0.341333h312.092444V388.551111H386.844444c-37.888 0-73.386667 9.728-104.049777 26.737778v-276.48c0-52.451556 42.097778-95.459556 95.516444-99.612445l8.533333-0.341333h312.092445v-99.953778H386.844444c-111.217778 0-202.012444 83.797333-207.758222 189.269334l-0.284444 10.581333V638.350222z m58.936889-43.463111C153.543111 594.830222 85.333333 662.186667 85.333333 745.415111 85.333333 828.586667 153.6 896 237.738667 896c84.138667 0 152.348444-67.413333 152.348444-150.584889 0-83.171556-68.266667-150.584889-152.348444-150.584889zM786.204444-128c-84.138667 0-152.348444 67.413333-152.348444 150.584889 0 83.171556 68.266667 150.584889 152.348444 150.584889 84.195556 0 152.405333-67.413333 152.405334-150.584889C938.666667-60.586667 870.4-128 786.261333-128z m0 421.660444c-84.138667 0-152.348444 67.413333-152.348444 150.584889 0 83.171556 68.266667 150.584889 152.348444 150.584889C870.456889 594.830222 938.666667 527.36 938.666667 444.245333c0-83.171556-68.266667-150.584889-152.405334-150.584889z"  horiz-adv-x="1024" />

    
    <glyph glyph-name="05" unicode="&#59000;" d="M998.163692 896L505.462154 105.944615 164.942769 539.569231 73.176615 467.495385l443.234462-564.224L1097.255385 834.244923z"  horiz-adv-x="1102" />

    
    <glyph glyph-name="01" unicode="&#59001;" d="M920.154353-31.623529v-72.282353h-783.058824v72.282353h783.058824z m-391.529412 692.705882c186.428235 0 337.317647-152.997647 337.317647-341.413647V-13.552941h-674.635294V319.728941c0 188.416 150.889412 341.413647 337.317647 341.413647z m0-72.282353c-146.311529 0-265.035294-120.410353-265.035294-269.131294V58.729412l530.070588-0.060236V319.668706c0 144.504471-112.037647 262.204235-252.566588 268.830118z m471.160471 81.136941l36.141176-62.644706-156.491294-90.352941-36.141176 62.644706 156.491294 90.352941zM36.141176 669.936941l156.491295-90.352941-36.141177-62.644706L0 607.292235l36.141176 62.644706zM791.792941 840.161882l59.211294-41.441882-103.664941-148.058353-59.211294 41.441882 103.604706 148.058353z m-526.336 0l103.604706-148.058353-59.151059-41.441882-103.664941 148.058353 59.211294 41.441882zM564.766118 896v-180.705882h-72.282353V896h72.282353z"  horiz-adv-x="1084" />

    
    <glyph glyph-name="04" unicode="&#59002;" d="M632.516923 284.829538h354.619077a33.083077 33.083077 0 0 1 32.216615 32.295385v64.354462a33.083077 33.083077 0 0 1-32.295384 32.295384h-354.461539c-12.839385 0-21.425231 8.507077-21.42523 21.425231v354.461538a33.083077 33.083077 0 0 1-32.295385 32.295385h-64.354462a33.083077 33.083077 0 0 1-32.295384-32.295385v-354.382769c0-12.839385-8.507077-21.425231-21.425231-21.425231h-354.461538a33.083077 33.083077 0 0 1-32.295385-32.295384v-64.354462a33.083077 33.083077 0 0 1 32.295385-32.295384h354.382769c12.839385 0 21.425231-8.507077 21.425231-21.425231v-354.619077a33.083077 33.083077 0 0 1 32.295384-32.216615h64.354462a33.083077 33.083077 0 0 1 32.295384 32.295384v354.461539c0 12.839385 8.664615 21.425231 21.504 21.42523z"  horiz-adv-x="1024" />

    
    <glyph glyph-name="02" unicode="&#59003;" d="M1024 384A512.585143 512.585143 0 0 1 461.824 893.513143v-101.302857A413.988571 413.988571 0 0 0 512 795.574857 412.086857 412.086857 0 0 0 923.574857 384a410.697143 410.697143 0 0 0-180.662857-339.894857V233.398857H642.486857V-128h361.398857v100.425143H815.542857A511.122286 511.122286 0 0 1 1024 384M100.425143 384c0 141.312 71.826286 265.801143 180.662857 339.894857v-189.293714h100.425143V896H20.114286v-100.205714H208.457143A511.561143 511.561143 0 0 1 0 384a512.585143 512.585143 0 0 1 562.176-509.513143v101.302857a409.965714 409.965714 0 0 0-50.176-3.364571A412.086857 412.086857 0 0 0 100.425143 384"  horiz-adv-x="1024" />

    
    <glyph glyph-name="03" unicode="&#59004;" d="M382.025143 722.139429l26.843428 77.238857h204.580572l26.843428-77.238857h-258.194285z m363.52 0L685.202286 896H337.115429l-60.269715-173.860571H73.142857v-96.621715h877.714286v96.548572H745.545143z m-173.714286-656.896h99.766857V548.205714H571.830857v-482.962285z m219.428572-96.621715H232.740571V548.205714H132.973714V-128h758.052572V548.205714H791.259429v-579.584z m-438.857143 96.548572h99.766857V548.278857H352.402286v-482.962286z"  horiz-adv-x="1024" />

    
    <glyph glyph-name="10" unicode="&#59005;" d="M159.0848 156.928v-227.584h-83.2v227.584h83.2z m277.952 202.24v-429.824h-83.2V359.04h83.2z m278.016-126.464v-303.36h-83.2v303.36h83.2z m277.952 278.016v-581.376h-83.2V510.72h83.2zM1002.9248 842.88v-192l-63.616 63.616-262.144-253.568a41.6 41.6 0 0 0-51.456-5.12l-5.696 4.48-247.936 228.928-302.272-279.552a41.6 41.6 0 0 0-53.76-2.304l-4.992 4.608a41.6 41.6 0 0 0-2.304 53.76l4.608 5.056L343.9168 776.32a41.6 41.6 0 0 0 50.88 4.416l5.632-4.352 247.232-228.288 232.832 225.28L810.9888 842.88h192z"  horiz-adv-x="1024" />

    
    <glyph glyph-name="08" unicode="&#59006;" d="M496.941176 896a496.941176 496.941176 0 1 0 0-993.882353 496.941176 496.941176 0 0 0 0 993.882353z m0-90.352941a406.588235 406.588235 0 1 1 0-813.176471 406.588235 406.588235 0 0 1 0 813.176471z m56.500706-293.647059V173.176471H440.440471V512h112.941176z m0 169.441882v-113.001411H440.440471V681.381647h112.941176z"  horiz-adv-x="1024" />

    
    <glyph glyph-name="06" unicode="&#59007;" d="M942.638545 737.745455H34.816C13.963636 737.745455 0 745.658182 0 757.666909V876.171636C0 888.087273 13.963636 896 34.909091 896h907.729454c20.945455 0 34.816-7.912727 34.816-19.828364v-118.597818c0-11.915636-13.963636-19.828364-34.816-19.828363z m34.909091-767.534546c0-11.729455-13.963636-19.735273-34.909091-19.735273H34.816C13.963636-49.524364 0-41.425455 0-29.696V88.901818c0 11.822545 13.963636 19.735273 34.909091 19.735273h907.729454c20.945455 0 34.816-7.912727 34.816-19.828364v-118.597818z m114.967273 382.603636c0-10.705455-13.032727-19.083636-29.044364-19.083636H460.055273v-86.574545c0-8.192-4.096-15.825455-10.984728-20.573091l-4.375272-2.513455a29.323636 29.323636 0 0 0-28.951273 2.327273L182.830545 397.405091a25.879273 25.879273 0 0 0 0 41.332364l232.913455 170.914909c16.570182 13.032727 44.311273 0 44.311273-20.666182v-86.574546h603.415272c16.197818 0 29.044364-8.378182 29.044364-18.990545v-130.699636z"  horiz-adv-x="1117" />

    
    <glyph glyph-name="add" unicode="&#59008;" d="M931.913143 878.006857c40.96 0 74.093714-33.133714 74.093714-74.093714V-35.84c0-40.96-33.133714-74.093714-74.093714-74.093714H92.16c-40.96 0-74.093714 33.133714-74.093714 74.093714V803.84C17.993143 844.873143 51.126857 878.006857 92.086857 878.006857H931.84z m0-74.093714H92.16V-35.84H931.84V803.84zM512 668.086857c19.017143 0 35.108571-14.482286 36.864-33.499428l0.219429-3.584v-209.92h209.92c19.090286 0 35.108571-14.555429 36.864-33.499429l0.219428-3.584c0-19.017143-14.482286-35.108571-33.499428-36.864l-3.584-0.219429h-209.92v-209.92a37.083429 37.083429 0 0 0-73.947429-3.584l-0.219429 3.584v209.92h-209.92a37.083429 37.083429 0 0 0-36.864 33.499429L227.913143 384c0 19.017143 14.482286 35.108571 33.499428 36.864l3.584 0.219429h209.92v209.92c0 20.48 16.603429 37.083429 37.083429 37.083428z"  horiz-adv-x="1024" />

    
    <glyph glyph-name="11" unicode="&#59009;" d="M561.005714 889.490286a47.542857 47.542857 0 0 0 71.460572-41.106286L632.393143 670.72l386.340571-237.056a47.542857 47.542857 0 0 0 22.162286-33.499429l0.512-7.021714-0.073143-358.4h102.838857v-95.085714H0v95.085714h113.590857V602.624a47.542857 47.542857 0 0 0 17.773714 37.083429l5.924572 4.022857z m-23.625143-123.611429L208.676571 575.268571v-537.673142h328.704V765.878857z m95.085715-206.701714v-521.581714h313.782857V366.592l-313.782857 192.585143zM452.022857 292.864a47.542857 47.542857 0 0 0 7.094857-94.573714l-7.094857-0.512h-146.285714a47.542857 47.542857 0 0 0-7.021714 94.573714l7.021714 0.512h146.285714z m386.048-10.971429a36.571429 36.571429 0 0 0 6.582857-72.557714l-6.582857-0.585143H708.315429a36.571429 36.571429 0 0 0-6.582858 72.557715l6.582858 0.585142h129.828571z m-386.048 230.4a47.542857 47.542857 0 0 0 7.094857-94.573714l-7.094857-0.512h-146.285714a47.542857 47.542857 0 0 0-7.021714 94.573714l7.021714 0.512h146.285714z"  horiz-adv-x="1170" />

    
    <glyph glyph-name="check" unicode="&#59010;" d="M968.291482 429.021186a33.085932 33.085932 0 0 1-33.149928-33.085932v-336.682957a70.139616 70.139616 0 0 0-69.947629-69.819637H136.023499a70.011624 70.011624 0 0 0-69.755641 69.819637V759.944503c0 38.525592 31.230048 69.75564 69.755641 69.755641h414.822073a33.085932 33.085932 0 1 1 0 66.23586H136.023499A136.183489 136.183489 0 0 1 0.031998 759.944503v-700.692206a136.183489 136.183489 0 0 1 135.991501-135.991501H865.257921a136.183489 136.183489 0 0 1 136.119493 135.991501V395.935254a33.085932 33.085932 0 0 1-33.085932 33.085932zM445.572152 430.045122l-203.507281 163.445785-90.170364-74.107368 351.978001-366.697082c60.7962 158.710081 252.784201 469.28267 487.393538 689.812887l-21.502656 50.812824a2278.065621 2278.065621 0 0 1-524.127242-463.331042z"  horiz-adv-x="1024" />

    
    <glyph glyph-name="industry" unicode="&#59011;" d="M512 896c38.2464-6.3488 67.584-33.536 76.8-70.4512l1.6896-8.0384v-61.44h215.04L1024 537.6l-108.7488-115.5584a312.8832 312.8832 0 1 1-345.088-516.608c-11.776-14.9504-28.9792-26.2656-49.2544-31.5392L512-128H368.64c-35.0208 6.3488-64.1536 33.536-73.4208 70.4512l-1.6896 8.0384v358.4H64.8704c-35.2256 3.2256-61.44 33.4336-64.512 68.096L0 384V677.5296c0 35.2256 24.0128 67.4304 57.9584 76.9536l6.912 1.536h228.6592V820.9408c0 35.072 23.808 64.1536 57.4976 73.4208L358.4 896h153.6z m199.1168-455.1168a256 256 0 1 0 0-512 256 256 0 0 0 0 512z m80.1792-88.576l-164.864-141.4656 46.4384-12.3904-41.984-156.5696 164.864 141.3632-46.4384 12.4928 41.984 156.5184z"  horiz-adv-x="1024" />

    
    <glyph glyph-name="company" unicode="&#59012;" d="M580.1472 805.5808v-421.7856A281.2416 281.2416 0 0 1 460.8 153.6l0.2048-8.6016a33.6896 33.6896 0 0 1-21.6576 7.936H181.76c-18.944 0-34.304-15.7696-34.3552-35.2768 0-17.664 13.7728-35.2256 34.3552-35.2256h257.5872c11.1104 0 21.248 5.12 27.648 12.6464a280.6784 280.6784 0 0 1 99.0208-161.024 35.4304 35.4304 0 0 0-30.5152-10.3936H92.4672c-24.064-3.5328-41.2672 14.08-41.2672 38.8096V653.824c0 17.6128 10.24 31.744 27.4944 35.2768l443.0336 151.6544c3.4304 3.584 6.8608 3.584 10.2912 3.584h0.0512c24.064 3.4816 44.6464-14.1312 48.128-38.8096zM742.4 384a230.4 230.4 0 1 0 0-460.8 230.4 230.4 0 0 0 0 460.8z m72.192-79.7696l-148.3776-127.232 41.7792-11.1616-37.7344-140.9536 148.3264 127.232-41.7792 11.264 37.7344 140.8512z m-375.2448 28.672H181.76c-18.944-0.0512-34.304-15.872-34.3552-35.328 0-17.6128 13.7728-35.2768 34.3552-35.2768h257.5872c18.8416 0 34.8672 11.8784 34.816 30.1568l-0.512 5.12c0 19.456-15.36 35.2256-34.304 35.328z m215.2448 256.6656c2.4064 0 4.8128 0 7.2192-2.4576l189.44-66.56c11.9296-2.4064 19.1488-12.288 19.1488-24.576v-91.4432C832 424.1408 788.48 435.2 742.4 435.2c-43.4688 0-84.6336-9.8304-121.344-27.4432V562.432c2.4064 17.3056 16.7936 29.5936 33.536 27.136z m-215.2448-80.384H181.76c-18.944 0-34.304-15.7184-34.3552-35.2256 0-17.664 13.7728-35.2768 34.3552-35.2768h257.5872c18.8416 0 34.8672 14.848 34.816 30.9248l-0.512 4.352c0 19.456-15.36 35.2256-34.304 35.2768z"  horiz-adv-x="1024" />

    
    <glyph glyph-name="13" unicode="&#59013;" d="M583.351136 788.225878l404.116499-234.434238L583.351136 295.658762l-404.1165 258.132878L583.351136 788.225878z m583.351136-230.642456L583.351136 896 0 557.656341l583.351136-372.615538 583.351136 372.615538z m-272.789575-262.726767l93.554938-54.251656L583.351136-17.527879l-404.1165 258.132878 93.554939 54.251656-88.450616 56.512141L0 244.396781l583.351136-372.615538 583.351136 372.615538-184.338959 106.972015-88.450616-56.512141z"  horiz-adv-x="1170" />

    
    <glyph glyph-name="cut" unicode="&#59014;" d="M913.993143 878.006857c40.96 0 74.093714-33.133714 74.093714-74.093714V-35.84c0-40.96-33.206857-74.093714-74.093714-74.093714H74.093714c-38.180571 0-69.632 28.891429-73.654857 65.974857L0-35.986286V803.986286C0 844.873143 33.206857 878.006857 74.093714 878.006857h839.899429z m0-74.093714H74.093714V-35.84h839.899429V803.84z m-172.909714-382.829714c19.017143 0 35.035429-14.555429 36.864-33.499429l0.146285-3.584c0-19.017143-14.482286-35.108571-33.499428-36.864l-3.510857-0.219429H247.003429a37.083429 37.083429 0 0 0-36.864 33.499429L209.993143 384c0 19.017143 14.482286 35.108571 33.499428 36.864l3.510858 0.219429h494.08z"  horiz-adv-x="1024" />

    
    <glyph glyph-name="danger" unicode="&#59015;" d="M584.035962 876.30019a53.638095 53.638095 0 0 0 46.811428-26.916571h0.585143L1161.571962-11.361524h-0.585143a45.104762 45.104762 0 0 0 9.362286-28.086857c0-30.427429-24.576-54.418286-54.418286-55.003429v-0.585142H55.651962v0.585142h-0.585143a54.954667 54.954667 0 0 0-46.226286 84.845715H8.25539L538.394819 851.139048c9.947429 15.213714 26.916571 25.161143 45.641143 25.161142zM708.573867 574.171429L392.109105 340.845714l92.842666-24.868571L413.076724 47.542857l316.416 233.325714-92.891429 24.917334L708.573867 574.171429z"  horiz-adv-x="1170" />

    
    <glyph glyph-name="12" unicode="&#59016;" d="M414.912 575.04a22.336 22.336 0 0 1 0-44.672h66.176v-59.328a22.336 22.336 0 0 1 44.672 0v59.328H592a22.336 22.336 0 0 1 0 44.672H525.76V618.88H592a22.336 22.336 0 0 1 0 44.672h-46.976l44.672 44.672a22.336 22.336 0 0 1-31.616 31.552l-54.656-55.424L448 739.84a22.336 22.336 0 1 1-31.552-31.552l44.608-44.672h-46.144a22.336 22.336 0 0 1 0-44.672h66.176v-43.84H414.912z m591.488-197.76V660.416a36.672 36.672 0 0 1-36.672 36.672h-87.616V820.672a67.008 67.008 0 0 1-18.368 47.232 65.92 65.92 0 0 1-37.312 19.712V888.32H199.68c-51.52-0.64-75.008-35.072-75.008-66.816v-124.416H36.672A36.672 36.672 0 0 1 0 660.48v-464.448h0.128v-285.76c0-20.288 16.384-36.672 36.608-36.672h933.12a36.672 36.672 0 0 1 36.608 36.672V374.72l-0.064 2.56z m-73.344 246.464v-212.352h-50.944V623.744h50.944zM200.448 815.104h608.384v-403.712H198.016V814.976a40.576 40.576 0 0 0 2.432 0.128z m-75.776-191.36v-212.352h-51.328V623.744h51.328z m-51.2-676.8V337.92h859.52v-142.016h0.128v-249.024H73.408z"  horiz-adv-x="1024" />

    
    <glyph glyph-name="text" unicode="&#59017;" d="M982.893714-44.617143H41.106286a41.106286 41.106286 0 1 1 0-82.212571h941.787428a41.106286 41.106286 0 1 1 0 82.212571zM265.069714 89.965714l269.165715 113.883429a37.888 37.888 0 0 1 11.702857 7.753143l453.851428 453.412571c32.182857 32.109714 32.402286 84.333714 0.219429 116.443429L909.458286 872.082286a82.651429 82.651429 0 0 1-116.516572-0.219429l-453.997714-453.485714a36.571429 36.571429 0 0 1-7.753143-11.629714l-114.102857-268.726858a36.132571 36.132571 0 0 1 7.826286-40.082285 36.132571 36.132571 0 0 1 40.228571-7.899429z m585.874286 723.675429l0.292571 0.219428 90.550858-90.404571-0.292572-0.219429-70.802286-70.802285-90.550857 90.404571 70.875429 70.802286z m-447.634286-447.122286l318.683429 318.244572 90.477714-90.404572-318.610286-318.317714-157.037714-66.413714 66.56 156.891428z"  horiz-adv-x="1024" />

    
    <glyph glyph-name="normal" unicode="&#59018;" d="M758.873043 871.023304c47.460174 0 86.28313-38.822957 86.283131-86.28313v-181.158957c-15.137391 0-28.048696 2.137043-43.141565 2.137044-125.106087 0-235.074783-69.008696-295.446261-170.340174-2.181565 2.137043-6.500174 2.137043-10.774261 2.137043H189.529043a53.426087 53.426087 0 0 1-53.871304-53.871304 53.426087 53.426087 0 0 1 53.871304-53.960348h276.034783a334.803478 334.803478 0 0 1-6.455652-66.82713 342.372174 342.372174 0 0 1 342.906435-342.906435c10.774261 0 23.730087 0 34.504348 2.137044a86.817391 86.817391 0 0 0-77.645914-49.597218H90.37913A86.505739 86.505739 0 0 0 4.051478-41.182609V784.695652C4.051478 832.200348 42.874435 871.023304 90.37913 871.023304z m28.048696-323.494956c153.154783 0 278.216348-125.106087 278.216348-278.26087 0-153.065739-125.106087-278.171826-278.26087-278.171826-153.065739 0-278.171826 125.106087-278.171826 278.216348 0 153.154783 125.106087 278.216348 278.216348 278.216348z m-433.463652-368.818087H189.529043a53.426087 53.426087 0 0 1-53.871304-53.871304 53.426087 53.426087 0 0 1 53.871304-53.960348H353.502609a53.426087 53.426087 0 0 1 53.871304 53.915826 53.426087 53.426087 0 0 1-53.871304 53.915826z m631.852522 213.526261a31.254261 31.254261 0 0 1-45.278609 0l-178.977391-178.977392-105.694609 107.787131a31.254261 31.254261 0 0 1-45.278609 0 31.254261 31.254261 0 0 1 0-45.278609l129.380174-129.380174c6.500174-4.318609 15.137391-8.637217 23.730087-8.637217 8.637217 0 17.274435 2.181565 23.730087 8.637217l198.38887 200.570435a31.254261 31.254261 0 0 1 0 45.278609z m-338.587826 306.220521H189.529043a53.426087 53.426087 0 0 1-53.871304-53.871304 53.426087 53.426087 0 0 1 53.871304-53.960348h457.238261a53.426087 53.426087 0 0 1 53.871305 53.915826 53.426087 53.426087 0 0 1-53.871305 53.915826z"  horiz-adv-x="1068" />

    
    <glyph glyph-name="warn" unicode="&#59019;" d="M1170.349105-39.448381c0-30.427429-24.576-54.418286-54.418286-55.003429v-0.585142H55.651962v0.585142h-0.585143a54.954667 54.954667 0 0 0-46.226286 84.845715H8.25539L538.394819 851.139048c9.947429 15.213714 26.916571 25.161143 45.641143 25.161142a53.638095 53.638095 0 0 0 46.811428-26.916571h0.585143L1161.571962-11.361524h-0.585143a45.104762 45.104762 0 0 0 9.362286-28.086857zM658.349105 565.00419a73.142857 73.142857 0 0 1-146.285715 0v-275.017142a73.142857 73.142857 0 0 1 146.285715 0v275.017142zM585.206248 161.840762a73.142857 73.142857 0 1 1 0.048762-146.285714 73.142857 73.142857 0 0 1-0.048762 146.285714z"  horiz-adv-x="1170" />

    
    <glyph glyph-name="project" unicode="&#59020;" d="M103.2704 265.5744l4.7616-2.56 401.8176-258.9696 91.8528 59.1872a279.7568 279.7568 0 0 1 86.016-32.3072l-156.4672-100.8128-4.608-2.7648-4.864-2.0992-0.512-0.256c-0.256-0.1536-0.512-0.1536-0.768-0.256l-0.6144-0.1024-0.512-0.1536-4.4032-0.8704-4.352-0.4096H508.928l-4.2496 0.4096-4.3008 0.8704c-0.512 0-0.9216 0.1024-1.3312 0.256-0.3584 0.1024-0.512 0.1024-0.768 0.256l-0.512 0.256-4.864 2.0992-4.608 2.7648-420.2496 270.848a37.0176 37.0176 0 0 0-13.568 46.2336l2.56 4.7616 3.328 4.352a37.0176 37.0176 0 0 0 42.9056 9.2672z m0 149.4016l4.7616-2.6112 395.9808-255.0784c14.4384-22.9888 32.1536-43.7248 52.4288-61.5424l-25.1904-16.2304a39.0656 39.0656 0 0 0-9.472-4.864c-0.1536-0.1536-0.256-0.1536-0.512-0.256-0.256-0.1536-0.512-0.1536-0.768-0.256l-0.6144-0.1024-0.512-0.1536-4.4032-0.8704-4.352-0.4096H508.928l-4.2496 0.4096-4.3008 0.8704-0.7168 0.1024-1.024 0.256-0.3584 0.1536-0.512 0.256-4.864 2.048-4.608 2.816-420.2496 270.848a37.0176 37.0176 0 0 0-13.568 46.1824l2.56 4.8128 3.328 4.352a37.0176 37.0176 0 0 0 42.9056 9.216zM742.4 537.6a230.4 230.4 0 1 0 0-460.8 230.4 230.4 0 0 0 0 460.8z m72.192-79.7696l-148.3776-127.232 41.7792-11.1616-37.7344-140.9536 148.3264 127.232-41.7792 11.264 37.7344 140.8512zM510.6688 844.1344l4.352-0.3584 4.2496-0.9216 0.7168-0.0512 0.5632-0.2048 0.4096-0.1024 0.8704-0.4096 4.9152-2.048 4.608-2.816 422.2464-272.128a36.864 36.864 0 0 0 16.64-26.3168l0.256-5.4784-0.256-5.2736a36.8128 36.8128 0 0 0-12.1856-23.0912l-4.4544-3.3792-4.608-3.0208a281.6 281.6 0 0 1-480.7168-256.1536L68.096 500.2752a36.864 36.864 0 0 0-16.7424 33.024 36.7616 36.7616 0 0 0 12.1856 29.5936l4.608 3.4816 420.2496 270.848a38.6048 38.6048 0 0 0 9.472 4.864c0.1536 0.1536 0.256 0.1536 0.512 0.256 0.256 0.1536 0.512 0.1536 0.768 0.256l0.6144 0.1024 0.512 0.1536 4.4032 0.9216 4.352 0.3584h1.6384z"  horiz-adv-x="1024" />

    
    <glyph glyph-name="07" unicode="&#59021;" d="M323.022539 327.73619c12.409183 75.670429 219.079643 36.779794 222.725641-16.183109 4.285646-61.022476-22.259771-131.575716-43.112316-165.029337-41.06544 71.640642-28.464362 88.783225-109.955593 110.019558-47.142101 12.345218-78.676777 16.502934-69.721696 71.192888m378.863861 327.50008c-18.29395-64.028824-30.063484-152.108435 14.839848-215.689506 68.122575-96.522973 212.427298-64.284684 198.482958-138.61185a411.741799 411.741799 0 0 0-403.170508-328.459553c-327.755939 0-523.424444 365.431241-343.619224 637.857577 14.456058-74.007342 49.956555-134.709994 104.006861-196.244188-16.886723-19.189458-43.943858-42.856456-48.421399-70.105486-23.794928-144.944371 98.058129-172.70512 143.34525-184.538619 6.140626-1.535157 13.880374-3.582032 18.549809-4.989259 23.219244-43.624034 51.171887-122.81253 115.584501-122.81253 88.271506 0 152.044471 177.822309 144.496617 286.882394-7.675783 110.659207-168.611369 172.129436-283.876045 146.031774a489.395139 489.395139 0 0 0-49.764661 61.278335c97.738305 109.827663 113.921414 0.895508 175.647504 39.850108 20.916509 13.176761 46.566418 29.423835 24.818365 229.889704a409.183205 409.183205 0 0 0 159.208535-32.622078l0.12793 0.255859a416.539164 416.539164 0 0 0 201.297412-182.299849l-0.447754-0.255859c23.027349-42.088877 38.82667-88.4634 45.926769-137.844272-85.265157 33.901375-141.554234 25.458014-132.02347 125.626983a333.001058 333.001058 0 0 1-85.009298 86.800315M260.209048 709.222611a409.24717 409.24717 0 0 0 152.684119 73.943377c3.965821-39.146494 6.780275-78.612812 7.547853-108.036647-40.553721 6.908205-93.708519-0.767578-152.236365-52.067396a378.544037 378.544037 0 0 0-7.995607 86.160666M511.974734 896a511.974734 511.974734 0 1 1 501.420532-615.789701C1077.55202 613.787041 825.018755 896 511.910769 896"  horiz-adv-x="1024" />

    
    <glyph glyph-name="Workbench" unicode="&#59022;" d="M625.4592 95.744l2.304-7.0656c10.752-32.1024 41.6768-53.6064 76.2368-53.6064a30.72 30.72 0 0 0 31.0784-30.3104 30.72 30.72 0 0 0-31.0784-30.3616h-435.2a30.72 30.72 0 0 0-31.0784 30.3616 30.72 30.72 0 0 0 31.0784 30.3104c34.56 0 65.536 21.504 76.288 53.6064l2.2528 7.0656zM828.416 793.6C879.7696 793.6 921.6 752.7424 921.6 702.5664v-455.1168c0-50.176-41.8304-90.9824-93.2352-90.9824H144.384C93.0304 156.4672 51.2 197.2736 51.2 247.4496v455.168C51.2 752.7424 93.0304 793.6 144.4352 793.6zM330.9568 669.4912c-88.064-14.4896-155.392-89.2928-155.392-179.3024 0-100.352 83.6096-182.016 186.4704-182.016 92.2624 0 168.8576 65.7408 183.7568 151.6544H361.984a30.72 30.72 0 0 0-31.0784 30.3616z m435.2-270.336h-124.3136a30.72 30.72 0 0 1-31.0784-30.3104 30.72 30.72 0 0 1 31.0784-30.3616h124.3136a30.72 30.72 0 0 1 31.0784 30.3616 30.72 30.72 0 0 1-31.0784 30.3104z m0 121.344h-124.3136a30.72 30.72 0 0 1-31.0784-30.3104 30.72 30.72 0 0 1 31.0784-30.3616h124.3136a30.72 30.72 0 0 1 31.0784 30.3616 30.72 30.72 0 0 1-31.0784 30.3616zM393.216 669.5424v-148.992h152.576c-13.1584 76.0832-74.6496 136.1408-152.576 148.992z m372.992-27.5968h-124.3136a30.72 30.72 0 0 1-31.0784-30.3616 30.72 30.72 0 0 1 31.0784-30.3104h124.3136a30.72 30.72 0 0 1 31.0784 30.3104 30.72 30.72 0 0 1-31.0784 30.3616z"  horiz-adv-x="1024" />

    
    <glyph glyph-name="xiaoxi" unicode="&#59023;" d="M938.368 127.616c-48.768 0-103.04 72.832-103.04 177.28V474.624c0 147.84-124.48 269.888-284.352 287.232v52.672c0 19.2-17.472 34.944-39.04 34.944-21.504 0-38.976-15.68-38.976-34.944v-52.672c-159.872-17.344-284.288-139.392-284.288-287.232v-169.728c0-104.384-54.4-177.28-103.104-177.28-21.568 0-39.04-15.68-39.04-34.944 0-19.2 17.472-34.88 39.04-34.88H333.44c12.608-79.744 88.704-139.008 178.56-139.264 91.072 0 165.952 60.8 178.56 139.264h247.936c21.568 0 39.04 15.744 38.976 34.944 0 19.264-17.472 34.944-39.04 34.88zM266.624 304.768V474.624c0 121.216 110.08 219.712 245.376 219.712 135.232 0 245.312-98.56 245.312-219.712v-169.728c0-70.4 20.544-132.736 54.016-177.28H212.608c33.408 44.544 54.016 106.88 54.016 177.28v-0.128zM512-11.712c-46.976 0.064-87.936 28.608-99.584 69.376h199.168c-11.712-40.768-52.672-69.312-99.584-69.376z"  horiz-adv-x="1024" />

    
    <glyph glyph-name="subpar" unicode="&#59024;" d="M758.873043 871.023304c47.460174 0 86.28313-38.822957 86.283131-86.28313v-181.158957c-15.137391 0-28.048696 2.137043-43.141565 2.137044-125.106087 0-235.074783-69.008696-295.446261-170.340174-2.181565 2.137043-6.500174 2.137043-10.774261 2.137043H189.529043a53.426087 53.426087 0 0 1-53.871304-53.871304 53.426087 53.426087 0 0 1 53.871304-53.960348h276.034783a334.803478 334.803478 0 0 1-6.455652-66.82713 342.372174 342.372174 0 0 1 342.906435-342.906435c10.774261 0 23.730087 0 34.504348 2.137044a86.817391 86.817391 0 0 0-77.645914-49.597218H90.37913A86.505739 86.505739 0 0 0 4.051478-41.182609V784.695652C4.051478 832.200348 42.874435 871.023304 90.37913 871.023304z m28.048696-323.494956c153.154783 0 278.216348-125.106087 278.216348-278.26087 0-153.065739-125.106087-278.171826-278.26087-278.171826-153.065739 0-278.171826 125.106087-278.171826 278.216348 0 153.154783 125.106087 278.216348 278.216348 278.216348z m-433.463652-368.818087H189.529043a53.426087 53.426087 0 0 1-53.871304-53.871304 53.426087 53.426087 0 0 1 53.871304-53.960348H353.502609a53.426087 53.426087 0 0 1 53.871304 53.915826 53.426087 53.426087 0 0 1-53.871304 53.915826zM912.695652 308.313043h-267.130435l-4.541217-0.311652a33.391304 33.391304 0 0 1 0-66.159304l4.541217-0.311652h267.130435l4.541218 0.311652A33.391304 33.391304 0 0 1 912.695652 308.313043z m-265.972869 390.144H189.529043a53.426087 53.426087 0 0 1-53.871304-53.871304 53.426087 53.426087 0 0 1 53.871304-53.960348h457.238261a53.426087 53.426087 0 0 1 53.871305 53.915826 53.426087 53.426087 0 0 1-53.871305 53.915826z"  horiz-adv-x="1068" />

    
    <glyph glyph-name="star" unicode="&#59025;" d="M224.093408 535.184601c59.121548 0 118.015706 0.227391 177.023559-0.227391 9.550404 0 13.302348 2.842382 16.258426 11.369528 36.041406 106.191397 72.423897 212.382793 108.920084 318.460495a43.772685 43.772685 0 0 0 60.258501 26.604697c14.439301-5.912155 21.147323-17.395379 25.80883-30.925118 35.586624-104.485967 71.62803-208.744544 106.873568-313.344207 3.183468-9.664099 7.617584-12.165396 17.85016-12.165395 114.491153 0.568476 228.982305 0.795867 343.473458 0.909562 7.731279 0 15.689949-0.113695 23.193838-1.591734a38.656397 38.656397 0 0 0 31.493594-29.219688 35.814015 35.814015 0 0 0-11.596919-39.338569c-9.550404-8.186061-20.237761-15.007778-30.697727-22.056885C1005.066324 383.628785 917.293564 323.370284 829.066022 263.793954c-7.276498-4.888897-8.640842-9.095623-5.798459-17.054293 36.609882-105.281834 72.878678-210.677364 109.147474-316.072894 7.844975-22.511667 3.410859-38.542702-13.416044-50.253316-17.281683-11.938005-36.268796-11.255833-55.938081 2.273906-94.935563 65.261094-189.984822 130.522188-284.692995 196.124367-7.844975 5.343678-12.506481 5.002593-19.896674-0.22739-95.162954-65.715875-190.780689-130.749578-285.602558-196.692844-31.83468-22.170581-65.488484-2.614992-70.491077 21.261018a55.255909 55.255909 0 0 0 2.273906 27.96904c35.814015 104.372272 71.969116 208.744544 108.806388 312.662036 3.86564 11.028443 1.478039 15.91734-7.95867 22.17058-94.935563 64.124141-189.530041 128.589368-284.238214 193.054595-18.873417 12.961263-25.126658 29.219688-18.759722 47.865715 6.366936 18.418636 22.284276 28.878603 44.682247 28.992298h177.02356v-0.682171z"  horiz-adv-x="1137" />

    
    <glyph glyph-name="area" unicode="&#59026;" d="M512.7168 896c282.368 0 512-227.9424 512-512 0-38.4512-4.2496-75.9296-12.288-111.9744a310.8352 310.8352 0 0 1-45.8752 94.6176l0.3072 19.0464c0 22.1184-1.6896 45.9264-5.12 68.096-5.0688-5.12-11.8784-13.6704-15.2576-18.7392-5.12-6.8096-3.4304-11.9296-10.24-17.0496-3.2256-2.4064-6.4512-4.096-9.472-5.8368a311.3472 311.3472 0 0 1-214.9376 85.6064 312.5248 312.5248 0 0 1-256.6144-133.7856c-6.144 1.536-10.4448 3.4816-8.8576 9.8304 0.512 1.792 2.3552 4.7104 4.5056 7.9872l3.2256 5.12c4.608 7.8336 7.2704 15.7696-5.9904 15.7696-11.9296 0-17.0496-16.9984-28.928-20.3776a29.8496 29.8496 0 0 0-34.048 13.6192c-15.3088 27.1872 8.4992 59.4944 34.048 61.2352 18.688 1.6896 47.616 16.9984 61.2352-5.12 3.3792-6.8096 13.6192-30.6176 18.688-15.36 1.6896 5.12-3.3792 25.6-5.12 34.048 2.56 5.12 7.0656 8.2944 11.264 11.776l4.096 3.584-1.7408-1.7408c5.12 5.12 18.7392 10.24 20.4288 16.9984 1.6896 3.4304-5.12 8.4992-1.6896 13.6192 1.6896 3.4304 8.4992 1.6896 10.24 5.12 3.3792 3.3792 3.3792 10.24 6.7584 13.6192 3.3792 5.12 10.24 5.12 13.6192 8.4992 6.8096 8.4992 10.24 15.3088 18.688 20.3776 8.4992 6.8096 16.9984 17.0496 28.928 11.9296-3.3792-5.12-13.6192-6.8096-16.9984-11.9296-1.6896-1.6896 15.3088 0 16.9984 0 10.24 3.4304 16.9984 10.24 25.4976 15.36 13.6192 10.1888 30.6176 10.1888 47.616 6.7584 5.12 0-8.4992 20.4288-10.1888 22.1184-6.8096 6.8096-6.8096 11.9296-16.9984 3.4304l-1.536-3.3792-3.7376-8.6016-1.536-3.328c-5.12-11.9296-3.3792-10.24-16.9984-17.0496 0 0.5632 0.2048 0.9728 0.4608 1.2288l0.0512 0.0512-1.6896-0.6656c-6.8608-2.5088-14.1312-3.9936-17.8688 2.7648l-1.3824 3.4304c0 3.4304 5.12 10.24 1.6896 13.6192-6.7584 10.24-28.8768-8.4992-37.376-11.9296 3.3792 32.3584 42.496 15.36 62.9248 22.1184 5.12 1.7408 25.4976 10.24 27.1872 15.36 1.7408 6.7584-16.9984 20.3776-20.3776 23.808a53.4528 53.4528 0 0 0-18.7392 23.808c-5.12 11.8784-8.4992 25.4976-22.1184 15.3088-5.12-3.4304-1.6896-10.24-10.1888-11.9296-5.12 0-10.24 6.8096-13.6192 10.24-5.12 5.12-10.24 16.9984-18.688 18.688-6.8096 1.6896-27.2384 11.8784-37.4272 5.12-6.8096-6.8096 1.6896-27.2384 3.3792-34.048 5.12-16.9984 8.4992-16.9984-5.12-27.1872-6.7584-5.12-10.1888 0-8.448-13.6192 1.6896-6.8096 8.4992-8.4992 3.3792-13.6192-3.3792-3.4304-11.9296-3.4304-15.3088-1.6896-11.9296 5.12-1.6896 11.8784-6.8096 20.3776-3.3792 5.12-25.4976 10.24-33.9968 13.6192-17.0496 8.4992-61.2352 16.9984-47.616 42.496 3.3792 6.8608 16.9984 18.7392 23.808 22.1696 6.7584 5.12 15.3088 6.8096 20.3776 11.8784 3.4304 3.4304 3.4304 13.6192 6.8096 15.36 4.096 2.6624 11.4176 2.1504 17.7152 1.792l4.4032-0.1536 4.5568 1.3312c19.9168 8.2944 0.9728 40.8064 32.8704 34.4064 10.24-1.6896 18.688-11.8784 27.1872-16.9984 7.3216-5.8368 10.8544-6.656 9.5744-12.1344l-1.024-3.1744-13.6192-13.6192c-3.4304-3.3792-11.9296-5.12-16.9984-6.8096 18.688 0 25.4976 1.6896 40.8064-8.4992 11.8784-8.4992 20.4288-13.6192 35.7376-13.6192-1.7408 6.8096-13.6192 5.12-13.6192 11.9296 1.6896 6.8096 8.4992-1.6896 10.24-1.6896 5.0688 0 15.2576-5.12 13.568 6.8096-1.6896 10.1888-23.808 5.12-16.9984 22.0672 10.1888 1.7408 6.8096-10.1888 13.568-11.8784 6.8096-3.4304 17.0496 5.12 18.7392 11.8784-10.24 5.12-40.8064 13.6192-37.4272 28.928 20.4288-11.8784 42.496-25.4976 62.976-39.1168-17.0496-15.3088 11.8784-6.8096 13.568-6.8096 3.3792 0 16.9984-11.8784 8.4992-13.6192-8.4992-1.6896-13.6192 10.24-22.1184 1.7408 6.8096-1.7408 32.3072-3.4304 25.5488-17.0496-1.7408-5.12-18.7392-5.12-23.8592-15.3088 3.4304 0 6.8096-1.6896 10.24 0-8.4992-11.8784 3.3792-20.3776 10.24-30.6176 8.448-11.8784 18.688-28.8768 32.256-32.256 30.6176-6.8608 27.2384 42.496 51.0464 50.9952 6.8096 1.6896 13.6192 0 20.4288 1.6896 6.8096 3.4304 11.8784 8.4992 16.9984 11.9296 11.6736 8.704 23.3472 9.984 37.12 10.1376l7.1168 0.0512-11.0592 11.52c-60.0576 60.3136-139.6224 103.5264-237.312 121.1392-10.24-3.3792-20.3776-8.4992-28.928-13.568 3.4304 0 8.5504-1.7408 13.6192-1.7408-6.8096-20.3776-42.496-6.8096-57.856-6.8096 11.9296 3.4304 28.928 10.24 39.168 17.0496 5.12 3.3792 0 6.8096 6.8096 10.1888a371.8656 371.8656 0 0 1-61.2352 5.12c-27.2384 0-52.224-2.2016-76.8512-6.5536l-18.432-3.6864h1.6896c-6.7584-3.3792-20.3776-15.3088-11.8784-23.808 6.8096-6.8096 16.9984 5.12 23.808 8.4992 16.9984 8.4992 40.8064 10.24 59.5456 13.6192-3.4304-8.4992-30.6176-5.12-40.8576-8.4992-11.8784-3.3792-6.7584-6.8096-15.3088-20.4288 3.4304 0 6.0928-0.7168 8.448-1.2288l3.4816-0.4608v-1.6896c-8.4992 0-16.9984 5.12-18.688-5.12-10.24 15.36-17.0496 13.6192-28.928 0 11.8784-6.8096 22.1184-15.3088 13.6192-25.4976-11.9296-11.9296-17.0496 3.3792-6.8096 10.24-10.24 3.3792-17.0496 11.8784-25.5488 1.6384 3.4304 0 6.8096-1.6896 10.24-1.6896-1.7408-1.6896-3.4304-10.24-5.12-11.8784-5.12-1.7408-20.4288 3.3792-25.4976 3.3792-11.9296 1.6896-23.808 0-35.7376 0 1.6896-13.6192-13.6192 0-20.4288 3.4304 11.9296 10.1888 25.5488 6.7584 37.4272 5.12 10.24-1.7408 25.5488-1.7408 27.2384 11.8784-11.9296 1.6896-18.7392 1.6896-23.808 10.24-3.4304 3.3792-5.12 6.7584-5.12 10.1376a445.2864 445.2864 0 0 1-183.7056-136.0384c11.8784-8.4992 22.1184-17.0496 27.1872-20.48 8.5504-6.7584 11.9296-13.568 17.0496-22.016 1.6896-1.7408 5.12-6.8608 6.8096-10.24 5.12-5.12 8.4992-11.9296 10.1888-18.7392 0-8.4992-3.4304-15.3088-3.4304-23.808-3.3792-27.1872 1.7408-52.736 22.1184-71.424 5.12-5.12 13.6192-8.4992 18.7392-13.6192 5.12-5.12 5.12-8.4992 8.4992-15.3088 10.24-15.3088 22.1184-30.6176 33.9968-45.9264 10.24-13.6192 15.36-10.24 5.12 3.3792-6.8096 10.24-15.3088 18.7392-20.4288 28.928-1.6896 1.6896-6.7584 13.6192-5.12 13.6192 13.6704-3.3792 17.0496-13.6192 27.2384-25.4976 10.24-11.9296 18.7392-18.7392 23.808-32.3584 5.12-16.9984 15.36-25.4976 32.3584-32.256 8.4992-3.4304 22.1184-11.9296 30.6176-13.6704 10.1888-1.6896 15.3088 5.12 25.4976 0 5.12-3.3792 10.24-13.568 18.688-15.3088 8.5504-1.6896 13.6192 1.7408 20.48-3.3792a35.328 35.328 0 0 0 2.4064-1.792 313.0368 313.0368 0 0 1 177.5104-467.3024c-35.9936-8.0384-73.472-12.288-111.9232-12.288-284.0576 0-512 229.632-512 512S230.3488 896 512.7168 896z m199.1168-455.1168a256 256 0 1 0 0-512 256 256 0 0 0 0 512z m80.1792-88.576l-164.864-141.4656 46.4384-12.3392-41.984-156.672 164.864 141.4144-46.4384 12.4928 41.984 156.5184z m147.6608 184.7808c0-1.6896-1.6896-1.6896-1.6896-3.3792-3.4304-1.7408-6.8096-1.7408-8.4992-5.12-1.7408-3.4304-1.7408-5.12-3.4304-8.4992 0-1.6896-3.3792-1.6896-3.3792-3.4304-1.7408-3.3792 0-10.1888 0-15.3088 0-5.12-1.7408-8.4992 1.6896-11.8784 1.6896-3.4304 6.8096-8.4992 10.24-11.9296 5.0688-3.3792 8.448-6.8096 13.568-6.8096 1.6896 0 8.4992 0 10.24 1.7408-5.12 22.0672-11.9296 44.1856-18.7392 64.6144z"  horiz-adv-x="1024" />

    
    <glyph glyph-name="09" unicode="&#59027;" d="M9.309091 18.245818l-9.309091-124.741818h125.765818c8.750545 108.357818-13.963636 249.483636 231.330909 245.108364 9.681455 48.686545 28.113455 91.973818 53.713455 130.327272C209.826909 290.443636 26.996364 219.042909 9.309091 18.152727zM408.669091 567.389091c0-160.116364-170.635636-160.116364-170.635636 0 0 106.868364 170.728727 106.868364 170.728727 0z m131.537454 0c0 293.794909-433.524364 293.794909-433.524363 0 0-320.418909 433.524364-320.418909 433.524363 0z m297.518546-213.550546c-230.772364 0-372.549818-97.28-389.12-267.822545l-15.825455-192.418909H559.476364l14.894545 182.644364C583.493818 172.032 677.701818 220.625455 837.818182 220.625455s254.138182-48.686545 263.354182-143.453091l14.894545-183.668364h126.603636l-15.825454 193.536c-16.477091 169.425455-158.254545 266.705455-389.12 266.705455z m828.509091-334.475636c-17.687273 201.634909-203.403636 270.894545-401.035637 249.669818 25.693091-38.260364 43.938909-81.640727 53.527273-130.327272 247.621818 4.375273 222.766545-136.750545 231.144727-245.108364H1675.636364l-9.309091 125.672727z m-341.085091 629.015273c41.239273 0 85.364364-0.930909 85.364364-80.989091 0-160.116364-170.728727-160.116364-170.728728 0 0 53.434182 44.125091 80.989091 85.364364 80.989091z m217.553454-80.989091c0 293.794909-433.524364 293.794909-433.524363 0 0-320.418909 433.524364-320.418909 433.524363 0zM924.206545 671.185455c0-188.695273-199.121455-188.695273-199.121454 0 0 107.985455 199.214545 107.985455 199.214545 0z m130.792728 0C1054.999273 779.170909 953.809455 896 824.692364 896 695.389091 896 594.385455 779.077818 594.385455 671.185455c0-350.580364 460.613818-350.580364 460.613818 0z"  horiz-adv-x="1675" />

    
    <glyph glyph-name="xingzhuang1" unicode="&#58998;" d="M0 896h166.365867v-162.065067H0V896z m337.92 0H1228.8v-162.065067H337.92V896zM0 450.833067h166.365867v-162.065067H0V450.901333z m337.92 0H1228.8v-162.065067H337.92V450.901333zM0 33.723733h166.365867V-128H0v161.792z m337.92 0H1228.8V-128H337.92v161.792z"  horiz-adv-x="1228" />

    
    <glyph glyph-name="xingzhuang2" unicode="&#58999;" d="M611.147294 794.383059a381.530353 381.530353 0 0 0 204.8-106.496 381.530353 381.530353 0 0 0 106.435765-204.8H611.147294V794.443294M545.249882 865.882353v-448.632471H993.882353A448.632471 448.632471 0 0 1 545.249882 865.882353zM512 384V799.442824l-66.439529-1.746824C213.353412 780.709647 30.117647 587.294118 30.117647 350.750118A448.632471 448.632471 0 0 1 478.750118-97.882353c236.604235 0 429.899294 183.235765 447.006117 415.442824l1.686589 66.439529H512z m-33.249882-415.442824a382.072471 382.072471 0 1 0-33.189647 762.699295v-413.696h413.635764a381.891765 381.891765 0 0 0-380.446117-349.003295z"  horiz-adv-x="1024" />

    
    <glyph glyph-name="nav_icon_21" unicode="&#58988;" d="M28.464592 552.647195l396.271488-226.010138a51.596072 51.596072 0 0 1 13.311446-5.290446v-438.25374L56.737192 105.974251a56.772746 56.772746 0 0 0-28.2726 48.922406V552.647195z m921.561601 5.973085v-403.723623c0-20.080941-10.751552-38.682833-28.272599-48.922406L540.443259-116.907129v442.065136a52.221824 52.221824 0 0 1 2.78744 1.47905L950.026193 558.62028zM40.922739 662.324403c4.835354 6.029971 10.922212 11.092871 18.089913 14.847382L462.16741 889.301612c16.952183 8.874297 37.203783 8.874297 54.155965 0l403.154758-212.129827c5.517992-2.844326 10.410233-6.54195 14.562949-10.865326L492.089718 414.242295a51.482299 51.482299 0 0 1-8.077885-5.688651 51.482299 51.482299 0 0 1-7.964113 5.688651L40.865853 662.267517z"  horiz-adv-x="1024" />

    
    <glyph glyph-name="nav_icon_51" unicode="&#58989;" d="M538.737778 896c33.109333 0 60.017778-26.908444 60.017778-60.074667v-425.472l297.642666-297.642666 140.8 140.743111a24.576 24.576 0 0 0 41.927111-17.351111v-336.497778a24.576 24.576 0 0 0-24.519111-24.519111h-336.497778a24.576 24.576 0 0 0-17.351111 41.927111l110.705778 110.762667-332.8 332.8V835.982222C478.663111 869.091556 505.514667 896 538.680889 896zM349.809778 285.696l77.539555-91.648-174.193777-147.342222 129.536-129.592889c3.413333-3.470222 5.745778-7.850667 6.712888-12.572445l0.455112-4.835555a24.576 24.576 0 0 0-24.576-24.519111H24.519111A24.576 24.576 0 0 0 0-100.295111v340.764444a24.576 24.576 0 0 0 41.927111 17.351111l126.008889-125.952 181.873778 153.827556z"  horiz-adv-x="1080" />

    
    <glyph glyph-name="nav_icon_41" unicode="&#58990;" d="M187.489923 628.803958H276.519343v-44.51471c0-49.149413 39.880006-89.02942 89.083311-89.02942h267.088258v-89.029419H365.602654a177.304352 177.304352 0 0 0-89.083311 23.82022v-246.393769c0-49.203305 39.880006-89.083311 89.083311-89.083311h267.088258v-89.02942H365.602654a178.058839 178.058839 0 0 0-178.112731 178.112731v445.147098zM232.004633 628.803958a89.02942 89.02942 0 1 1 0 178.112731 89.02942 89.02942 0 0 1 0-178.112731z m0-89.02942a178.058839 178.058839 0 1 0 0 356.17157 178.058839 178.058839 0 0 0 0-356.17157zM766.235042-38.97058a89.02942 89.02942 0 1 1 0 178.11273 89.02942 89.02942 0 0 1 0-178.11273z m0-89.02942a178.058839 178.058839 0 1 0 0 356.17157 178.058839 178.058839 0 0 0 0-356.17157zM766.235042 361.715699a89.02942 89.02942 0 1 1 0 178.058839 89.02942 89.02942 0 0 1 0-178.058839z m0-89.029419a178.058839 178.058839 0 1 0 0 356.117678 178.058839 178.058839 0 0 0 0-356.117678z"  horiz-adv-x="1024" />

    
    <glyph glyph-name="nav_icon_11" unicode="&#58991;" d="M1077.589333 376.149333a470.562133 470.562133 0 0 1-89.224533 194.56l-59.938133-59.938133a70.8608 70.8608 0 1 0-100.283734 100.215467l57.617067 57.617066a470.016 470.016 0 0 1-200.4992 80.349867v-65.604267a70.8608 70.8608 0 1 0-141.7216 0v65.536a470.084267 470.084267 0 0 1-204.526933-83.1488l38.024533-38.024533A70.8608 70.8608 0 1 0 276.753067 527.36l-39.3216 39.3216a470.493867 470.493867 0 0 1-86.2208-190.600533h61.44a70.8608 70.8608 0 1 0 0-141.789867H144.110933c6.690133-67.310933 27.511467-131.413333 60.893867-189.098667h818.7904a468.5824 468.5824 0 0 1 60.893867 189.098667h-68.539734a70.8608 70.8608 0 0 0 0 141.789867h61.44zM0 281.6a614.4 614.4 0 1 0 1116.296533-354.440533c-5.666133-7.9872-24.7808-23.688533-52.0192-23.688534H165.888c-30.993067-0.273067-46.8992 14.5408-52.224 21.981867A611.601067 611.601067 0 0 0 0 281.6zM661.640533 212.3776a70.997333 70.997333 0 0 0-96.938666 26.2144c-13.1072 22.7328-43.8272 123.153067-92.091734 301.2608C602.794667 408.9856 674.338133 332.117333 687.445333 309.521067a70.997333 70.997333 0 0 0-25.8048-97.143467z"  horiz-adv-x="1228" />

    
    <glyph glyph-name="nav_icon_31" unicode="&#58992;" d="M972.767574 625.775407a162.127929 162.127929 0 1 0 0-324.255858 162.127929 162.127929 0 0 0 0 324.255858zM486.383787 895.965868a216.193327 216.193327 0 1 0 0-432.31839 216.193327 216.193327 0 0 0 0 432.31839zM951.196027 247.454152h-6.143795c186.907903 0 340.434519-92.976101 351.902936-291.830273 0.409586-7.918669 0-32.425586-29.353688-32.425586h-208.342922a538.059931 538.059931 0 0 1-108.062531 324.255859zM485.49635 355.448418c258.722043 0 471.297357-123.89987 487.134696-389.107029 0.682644-10.512716 0-43.21136-40.549049-43.21136H39.320289c-13.584614 0-40.41252 29.217159-39.252025 43.279624 20.888904 257.90287 230.255791 389.10703 485.359822 389.10703z"  horiz-adv-x="1297" />

    
    <glyph glyph-name="nav_icon_101" unicode="&#58993;" d="M292.544 164.544v-73.088H1024v-146.304H292.544V-128H146.304l-0.064 73.152H0v146.304h146.24v73.088h146.304zM292.544 896v-73.088H1024V676.48L292.544 676.608v-73.152H146.304l-0.064 73.152H0V822.784l146.24 0.064V896h146.304zM877.696 530.304v-73.088L1024 457.152v-146.304h-146.304v-73.152H731.52l-0.064 73.216H0V457.088h731.392V530.368h146.304z"  horiz-adv-x="1024" />

    
    <glyph glyph-name="nav_icon_81" unicode="&#58994;" d="M270.336 539.989333l116.931048-116.931047c24.81981-24.868571 24.81981-65.097143 0-89.965715l-116.931048-116.931047c-24.868571-24.81981-65.145905-24.81981-89.965714 0l-116.931048 116.931047a63.585524 63.585524 0 0 0 0 89.965715l116.931048 116.931047c24.868571 24.868571 65.097143 24.868571 89.965714 0z m585.142857 0l116.931048-116.931047c24.81981-24.868571 24.81981-65.097143 0-89.965715l-116.931048-116.931047c-24.868571-24.81981-65.145905-24.81981-89.965714 0l-116.931048 116.931047a63.585524 63.585524 0 0 0 0 89.965715l116.931048 116.931047c24.868571 24.868571 65.097143 24.868571 89.965714 0zM562.907429 247.417905l116.931047-116.931048c24.81981-24.868571 24.81981-65.097143 0-89.965714l-116.931047-116.931048c-24.868571-24.81981-65.145905-24.81981-89.965715 0l-116.931047 116.931048a63.585524 63.585524 0 0 0 0 89.965714l116.931047 116.931048c24.868571 24.868571 65.097143 24.868571 89.965715 0z m0 585.142857l116.931047-116.931048c24.81981-24.868571 24.81981-65.097143 0-89.965714l-116.931047-116.931048c-24.868571-24.81981-65.145905-24.81981-89.965715 0L356.010667 625.664a63.585524 63.585524 0 0 0 0 89.965714l116.931047 116.931048c24.868571 24.868571 65.097143 24.868571 89.965715 0z"  horiz-adv-x="1024" />

    
    <glyph glyph-name="nav_icon_91" unicode="&#58995;" d="M703.995307 512.00256A319.997867 319.997867 0 1 0 511.996587-63.9936a319.997867 319.997867 0 1 0 0 511.996587 318.3481 318.3481 0 0 0 191.99872 63.999573z m0-127.999147c-38.854852 0-75.661718-11.548367-106.665956-32.312673 27.135819-47.046797 42.666382-101.54599 42.666382-159.686047a318.575654 318.575654 0 0 0-42.609493-159.629158A191.99872 191.99872 0 1 1 703.995307 384.003413zM511.996587 576.002133m-319.997867 0a319.997867 319.997867 0 1 1 639.995733 0 319.997867 319.997867 0 1 1-639.995733 0Z"  horiz-adv-x="1024" />

    
    <glyph glyph-name="nav_icon_71" unicode="&#58996;" d="M239.4624 717.824A200.3456 200.3456 0 0 0 438.5792 896h109.0048a200.3456 200.3456 0 0 0 199.1168-178.176l38.5536-345.4464h108.544c36.864 0 66.7648-29.9008 66.7648-66.816v-40.96c0-36.864-29.9008-66.7648-66.7648-66.7648H92.3648c-36.864 0-66.7648 29.9008-66.7648 66.7648v40.96c0 36.864 29.9008 66.816 66.7648 66.816h108.544l38.5536 345.4976zM376.2176 139.6224m116.3776 0l0.9728 0q116.3776 0 116.3776-116.3776l0 0.0512q0-116.3776-116.3776-116.3776l-0.9728 0q-116.3776 0-116.3776 116.3776l0-0.0512q0 116.3776 116.3776 116.3776Z"  horiz-adv-x="1024" />

    
    <glyph glyph-name="nav_icon_61" unicode="&#58997;" d="M215.608889 869.034667V855.04c0-23.552-10.296889-45.909333-28.16-61.269333-17.180444-14.791111-25.770667-34.588444-25.770667-59.448889a80.839111 80.839111 0 0 1 161.678222 0c0 24.860444-8.533333 44.657778-25.770666 59.448889A80.839111 80.839111 0 0 0 269.482667 855.04V869.034667c0 14.904889 12.060444 26.965333 26.965333 26.965333h161.678222c14.848 0 26.908444-12.060444 26.908445-26.965333V855.04c0-23.552-10.24-45.909333-28.103111-61.269333-17.180444-14.791111-25.770667-34.588444-25.770667-59.448889a80.839111 80.839111 0 1 1 161.678222 0c0 24.860444-8.590222 44.657778-25.770667 59.448889A80.839111 80.839111 0 0 0 538.965333 855.04V869.034667c0 14.904889 12.060444 26.965333 26.908445 26.965333h161.678222c14.904889 0 26.965333-12.060444 26.965333-26.965333V855.04c0-23.552-10.24-45.909333-28.103111-61.269333-17.180444-14.791111-25.770667-34.588444-25.770666-59.448889a80.839111 80.839111 0 1 1 161.678222 0c0 24.860444-8.590222 44.657778-25.770667 59.448889A80.839111 80.839111 0 0 0 808.391111 855.04V869.034667c0 14.904889 12.060444 26.965333 26.908445 26.965333h80.839111C975.758222 896 1024 847.758222 1024 788.195556v-592.782223A323.356444 323.356444 0 0 0 700.643556-128H323.356444A323.356444 323.356444 0 0 0 0 195.356444V788.195556C0 847.758222 48.241778 896 107.804444 896h80.782223c14.904889 0 26.965333-12.060444 26.965333-26.965333zM251.960889 491.804444c-20.081778 0-36.408889-18.090667-36.408889-40.391111 0-22.357333 16.327111-40.448 36.408889-40.448h520.078222c20.081778 0 36.408889 18.090667 36.408889 40.391111 0 22.357333-16.327111 40.391111-36.408889 40.391112H252.017778zM251.960889 330.126222c-20.081778 0-36.408889-18.090667-36.408889-40.391111 0-22.357333 16.327111-40.448 36.408889-40.448h520.078222c20.081778 0 36.408889 18.090667 36.408889 40.391111 0 22.357333-16.327111 40.391111-36.408889 40.391111H252.017778zM256 168.391111a40.391111 40.391111 0 0 1 0-80.782222h242.517333a40.391111 40.391111 0 1 1 0 80.782222H256z"  horiz-adv-x="1024" />

    
    <glyph glyph-name="nav_icon_2" unicode="&#58978;" d="M33.052444 552.675556l396.288-226.019556a51.598222 51.598222 0 0 1 13.312-5.290667v-438.272L61.326222 105.984a56.775111 56.775111 0 0 0-28.273778 48.924444V552.675556z m921.6 5.973333v-403.740445c0-20.081778-10.752-38.684444-28.273777-48.924444l-381.326223-222.890667v442.083556a52.224 52.224 0 0 1 2.787556 1.479111L954.595556 558.648889zM520.931556 889.344l403.228444-212.138667c5.461333-2.844444 10.353778-6.542222 14.506667-10.865777L496.64 414.264889a51.484444 51.484444 0 0 1-8.078222-5.688889 51.484444 51.484444 0 0 1-7.964445 5.688889L45.511111 662.300444c4.835556 6.087111 10.922667 11.150222 18.090667 14.904889L466.773333 889.344c16.952889 8.874667 37.205333 8.874667 54.158223 0z"  horiz-adv-x="1024" />

    
    <glyph glyph-name="nav_icon_4" unicode="&#58979;" d="M236.36788 896a178.042722 178.042722 0 0 0 52.432073-348.271826c12.932885-28.667896 40.684702-49.252739 73.448012-52.054864l7.705844-0.323322 228.157653 0.053887a178.150496 178.150496 0 0 0 350.535081-44.564568 178.042722 178.042722 0 0 0-350.535081-44.51068H369.953809a177.288304 177.288304 0 0 0-89.075248 23.818064v-246.371467c0-46.612274 35.780983-84.818173 81.369404-88.751926l7.705844-0.323322 228.157653 0.053887a178.150496 178.150496 0 0 0 350.535081-44.564568 178.042722 178.042722 0 0 0-350.535081-44.510681H369.953809a178.096609 178.096609 0 0 0-177.827174 167.96585l-0.269436 10.13076V545.464919A178.150496 178.150496 0 0 0 236.36788 896z m534.182054-756.735457a89.021361 89.021361 0 1 1 0-178.096609 89.021361 89.021361 0 0 1 0 178.096609z m0 400.596125a89.021361 89.021361 0 1 1 0-178.042722 89.021361 89.021361 0 0 1 0 178.042722zM236.36788 806.978639a89.021361 89.021361 0 1 1 0-178.096609 89.021361 89.021361 0 0 1 0 178.096609z"  horiz-adv-x="1024" />

    
    <glyph glyph-name="nav_icon_3" unicode="&#58980;" d="M956.725442 247.385887l-6.143795 0.068265c186.907903 0 340.434519-92.976101 351.902937-291.830273 0.477851-7.918669 0-32.425586-29.353688-32.425586h-208.342922a537.923403 537.923403 0 0 1-95.638412 307.053232l-12.42412 17.134362zM491.025766 355.516683c258.722043 0 471.297357-123.89987 487.134695-389.10703 0.682644-10.512716 0-43.21136-40.549048-43.21136H44.849705c-13.584614 0-40.41252 29.217159-39.252025 43.279624 20.888904 257.90287 230.255791 389.10703 485.359821 389.10703z m487.271224 270.258724a162.127929 162.127929 0 1 0 0-324.255858 162.127929 162.127929 0 0 0 0 324.255858zM491.913203 895.965868a216.193327 216.193327 0 1 0 0-432.31839 216.193327 216.193327 0 0 0 0 432.31839z"  horiz-adv-x="1365" />

    
    <glyph glyph-name="nav_icon_5" unicode="&#58981;" d="M543.288889 896c33.166222 0 60.074667-26.908444 60.074667-60.074667v-425.472l297.642666-297.642666 140.8 140.743111a24.576 24.576 0 0 0 41.984-17.351111v-336.497778a24.576 24.576 0 0 0-24.576-24.519111h-336.497778a24.576 24.576 0 0 0-17.351111 41.927111l110.705778 110.762667-332.8 332.8V835.982222C483.271111 869.091556 510.179556 896 543.288889 896zM354.417778 285.696l77.539555-91.648-174.193777-147.342222 129.536-129.592889c3.413333-3.470222 5.745778-7.850667 6.712888-12.572445l0.455112-4.835555a24.576 24.576 0 0 0-20.138667-24.120889l-4.437333-0.398222H29.127111a24.576 24.576 0 0 0-24.120889 20.138666l-0.398222 4.380445v340.764444a24.576 24.576 0 0 0 38.115556 20.48l3.811555-3.128889 126.008889-125.952 181.873778 153.827556z"  horiz-adv-x="1137" />

    
    <glyph glyph-name="nav_icon_7" unicode="&#58982;" d="M513.9456 139.6224c55.296 0 100.1472-44.8512 100.1472-100.1472v-32.4096c0-55.296-44.8512-100.1472-100.1472-100.1472h-33.4336a100.1984 100.1984 0 0 0-100.1472 100.1472v32.4096c0 55.296 44.8512 100.1472 100.1472 100.1472h33.4336zM551.7312 896a200.3456 200.3456 0 0 0 199.1168-178.176l38.5536-345.4464h108.544c36.864 0 66.7648-29.9008 66.7648-66.816v-40.96c0-36.864-29.9008-66.7648-66.7648-66.7648H96.512c-36.864 0-66.7648 29.9008-66.7648 66.7648v40.96c0 36.864 29.9008 66.816 66.7648 66.816h108.544l38.5536 345.4976A200.3456 200.3456 0 0 0 442.7264 896h109.0048z"  horiz-adv-x="1024" />

    
    <glyph glyph-name="nav_icon_10" unicode="&#58983;" d="M297.728 164.544v-73.088h731.456v-146.304H297.728V-128H151.488l-0.064 73.152H5.184v146.304h146.24v73.088h146.304z m585.152 365.76v-73.088l146.304-0.064v-146.304h-146.304v-73.152H736.64l-0.064 73.216H5.184V457.088h731.392V530.368h146.304zM297.728 896v-73.088h731.456V676.48L297.728 676.608v-73.152H151.488l-0.064 73.152H5.184V822.784l146.24 0.064V896h146.304z"  horiz-adv-x="1088" />

    
    <glyph glyph-name="nav_icon_8" unicode="&#58984;" d="M542.485211 247.417905l116.931048-116.931048c24.868571-24.868571 24.868571-65.097143 0-89.965714l-116.931048-116.931048c-24.868571-24.81981-65.145905-24.81981-89.965714 0l-116.931047 116.931048a63.585524 63.585524 0 0 0 0 89.965714l116.931047 116.931048c24.868571 24.868571 65.097143 24.868571 89.965714 0z m-292.571428 292.571428l116.931047-116.931047c24.868571-24.868571 24.868571-65.097143 0-89.965715l-116.931047-116.931047c-24.868571-24.81981-65.145905-24.81981-89.965714 0L43.017021 333.092571a63.585524 63.585524 0 0 0 0 89.965715L159.948069 539.989333c24.868571 24.868571 65.097143 24.868571 89.965714 0z m585.142857 0l116.931048-116.931047c24.868571-24.868571 24.868571-65.097143 0-89.965715l-116.931048-116.931047c-24.868571-24.81981-65.145905-24.81981-89.965714 0l-116.931048 116.931047a63.585524 63.585524 0 0 0 0 89.965715l116.931048 116.931047c24.868571 24.868571 65.097143 24.868571 89.965714 0z m-292.571429 292.571429l116.931048-116.931048c24.868571-24.868571 24.868571-65.097143 0-89.965714l-116.931048-116.931048c-24.868571-24.81981-65.145905-24.81981-89.965714 0L335.58845 625.664a63.585524 63.585524 0 0 0 0 89.965714L452.519497 832.560762c24.868571 24.868571 65.097143 24.868571 89.965714 0z"  horiz-adv-x="1024" />

    
    <glyph glyph-name="nav_icon_9" unicode="&#58985;" d="M516.607713 896a319.999822 319.999822 0 0 0 308.337606-405.845108A319.999822 319.999822 0 0 0 708.607606-127.999431a318.577601 318.577601 0 0 0-191.999893 63.999964 319.999822 319.999822 0 1 0-308.337606 554.211248A319.999822 319.999822 0 0 0 516.607713 896z m249.230084-520.646822l-6.99733-8.533328a320.682489 320.682489 0 0 0-125.895041-89.031062c7.623107-27.249763 11.662216-56.035524 11.662216-85.788397a318.577601 318.577601 0 0 0-42.609754-159.630133 191.999893 191.999893 0 1 1 163.839909 342.98292z"  horiz-adv-x="1080" />

    
    <glyph glyph-name="nav_icon_6" unicode="&#58986;" d="M193.251556 896c14.848 0 26.965333-12.060444 26.965333-26.965333V855.04c0-23.552-10.24-45.909333-28.16-61.269333-17.180444-14.791111-25.770667-34.588444-25.770667-59.448889a80.839111 80.839111 0 0 1 161.678222 0c0 24.860444-8.533333 44.657778-25.770666 59.448889A80.839111 80.839111 0 0 0 274.090667 855.04V869.034667c0 14.904889 12.060444 26.965333 26.965333 26.965333h161.678222c14.848 0 26.908444-12.060444 26.908445-26.965333V855.04c0-23.552-10.24-45.909333-28.103111-61.269333-17.180444-14.791111-25.770667-34.588444-25.770667-59.448889a80.839111 80.839111 0 1 1 161.678222 0c0 24.860444-8.590222 44.657778-25.770667 59.448889A80.839111 80.839111 0 0 0 543.573333 855.04V869.034667c0 14.904889 12.060444 26.965333 26.908445 26.965333h161.735111c14.848 0 26.908444-12.060444 26.908444-26.965333V855.04c0-23.552-10.24-45.909333-28.103111-61.269333-17.180444-14.791111-25.770667-34.588444-25.770666-59.448889a80.839111 80.839111 0 1 1 161.678222 0c0 24.860444-8.590222 44.657778-25.770667 59.448889A80.839111 80.839111 0 0 0 813.056 855.04V869.034667c0 14.904889 12.060444 26.965333 26.908444 26.965333h80.839112c59.562667 0 107.804444-48.241778 107.804444-107.804444v-592.782223A323.356444 323.356444 0 0 0 705.251556-128H327.964444a323.356444 323.356444 0 0 0-323.356444 323.356444V788.195556C4.608 847.758222 52.849778 896 112.412444 896h80.782223z m309.873777-727.608889H260.608a40.391111 40.391111 0 0 1 0-80.782222h242.517333a40.391111 40.391111 0 1 1 0 80.782222z m273.521778 161.735111H256.568889c-20.081778 0-36.408889-18.090667-36.408889-40.391111 0-22.357333 16.327111-40.448 36.408889-40.448h520.078222c20.081778 0 36.408889 18.090667 36.408889 40.391111 0 22.357333-16.327111 40.391111-36.408889 40.391111z m0 161.678222H256.568889c-20.081778 0-36.408889-18.090667-36.408889-40.391111 0-22.357333 16.327111-40.448 36.408889-40.448h520.078222c20.081778 0 36.408889 18.090667 36.408889 40.391111 0 22.357333-16.327111 40.391111-36.408889 40.391112z"  horiz-adv-x="1080" />

    
    <glyph glyph-name="nav_icon_1" unicode="&#58987;" d="M619.9296 896a614.4 614.4 0 0 0 501.9648-968.840533c-5.7344-7.9872-24.849067-23.688533-52.087467-23.688534H171.4176c-30.9248-0.273067-46.8992 14.5408-52.224 21.981867A614.4 614.4 0 0 0 619.9296 896z m70.8608-147.0464v-65.604267a70.8608 70.8608 0 1 0-141.7216 0v65.536a470.084267 470.084267 0 0 1-204.526933-83.1488l38.024533-38.024533A70.8608 70.8608 0 1 0 282.282667 527.36l-39.3216 39.3216a470.493867 470.493867 0 0 1-86.2208-190.600533h61.44a70.8608 70.8608 0 1 0 0-141.789867H149.640533c6.690133-67.310933 27.511467-131.413333 60.893867-189.098667h818.7904a468.5824 468.5824 0 0 1 60.893867 189.098667h-68.539734a70.8608 70.8608 0 0 0 0 141.789867h61.44a470.493867 470.493867 0 0 1-89.224533 194.56l-59.938133-59.938134a70.8608 70.8608 0 1 0-100.283734 100.215467l57.617067 57.617067a470.016 470.016 0 0 1-200.4992 80.349866zM478.139733 539.8528C608.256 408.9856 679.936 332.117333 692.974933 309.521067a70.997333 70.997333 0 0 0-25.8048-97.143467 70.997333 70.997333 0 0 0-96.938666 26.2144c-13.1072 22.7328-43.8272 123.153067-92.091734 301.2608z"  horiz-adv-x="1297" />

    
    <glyph glyph-name="cloud" unicode="&#58977;" d="M1109.77787 341.217754h-85.351114a42.675557 42.675557 0 0 0-42.675558 42.675557 42.675557 42.675557 0 0 0 42.675558 42.675558h85.351114a42.675557 42.675557 0 0 0 42.675558-42.675558 42.675557 42.675557 0 0 0-42.675558-42.675557z m-167.71494 284.219212a42.675557 42.675557 0 0 0-60.385914 0 42.675557 42.675557 0 0 0 0 60.172536l60.385914 60.385914a42.675557 42.675557 0 0 0 60.385914 0 42.675557 42.675557 0 0 0 0-60.385914zM879.116483 292.35424a256.053344 256.053344 0 0 0 59.959158-164.300896 256.053344 256.053344 0 0 0-256.053345-256.053344h-341.404459a341.404459 341.404459 0 0 0-341.404459 341.404459 341.404459 341.404459 0 0 0 341.404459 341.40446 344.818504 344.818504 0 0 0 96.660138-13.869557A254.5597 254.5597 0 0 0 640.346739 639.946656a256.053344 256.053344 0 0 0 256.053344-256.053345 251.145655 251.145655 0 0 0-17.496978-91.539071zM85.564493 213.191081a256.053344 256.053344 0 0 1 256.053344-256.053344h341.404459a170.70223 170.70223 0 0 1 170.70223 170.70223 170.70223 170.70223 0 0 1-170.70223 170.702229 169.208585 169.208585 0 0 1-92.392581-27.525734A256.053344 256.053344 0 0 1 341.617837 469.244426a256.053344 256.053344 0 0 1-256.053344-256.053345z m554.782246 341.40446a170.70223 170.70223 0 0 1-120.771828-50.14378 343.751615 343.751615 0 0 0 120.771828-125.466139 261.387789 261.387789 0 0 0 42.675557 4.267556 254.132944 254.132944 0 0 0 124.826006-32.433424 162.380496 162.380496 0 0 1 3.200667 32.433424 170.70223 170.70223 0 0 1-170.70223 171.342363z m0 170.702229a42.675557 42.675557 0 0 0-42.675558 42.675558V853.324443a42.675557 42.675557 0 0 0 42.675558 42.675557 42.675557 42.675557 0 0 0 42.675557-42.675557v-85.351115a42.675557 42.675557 0 0 0-42.675557-42.675558z m-301.716191-99.860804l-61.026047 60.172536a42.675557 42.675557 0 0 0 0 60.385914 42.675557 42.675557 0 0 0 60.385914 0l60.385913-60.385914a42.675557 42.675557 0 0 0 0-60.172536 42.675557 42.675557 0 0 0-59.959158 0z"  horiz-adv-x="1152" />

    
    <glyph glyph-name="Supervision-02" unicode="&#58971;" d="M25.344 537.216l450.56-267.008c8.32-8.32 16.704-8.32 25.088-8.32 8.32 0 16.64 0 24.96 8.32l450.56 267.008a45.888 45.888 0 0 1 25.088 41.728c0 16.64-8.32 33.344-25.024 41.728L526.016 887.68a53.184 53.184 0 0 1-50.112 0L25.344 620.672a45.888 45.888 0 0 1-24.96-41.728c0-16.64 8.32-33.408 24.96-41.728M934.848 437.12l-433.92-258.688L67.136 437.12c-16.64 8.32-50.048 0-58.368-16.704-16.704-25.024-8.32-58.432 16.64-66.752l450.56-267.008c8.32-8.32 16.704-8.32 25.088-8.32 8.32 0 16.64 0 24.96 8.32l450.56 267.008c25.088 8.32 33.408 41.728 16.704 66.752-8.32 16.64-41.664 25.024-58.368 16.64M934.848 253.504l-433.92-258.624-433.856 258.624c-16.64 8.32-50.048 0-58.368-16.64-16.704-25.024-8.32-58.432 16.64-66.752l450.56-267.008c8.32-8.32 16.704-8.32 25.088-8.32 8.32 0 16.64 0 24.96 8.32l450.56 267.008c25.088 16.64 33.408 41.728 16.704 66.752-8.32 16.64-41.664 24.96-58.368 16.64"  horiz-adv-x="1024" />

    
    <glyph glyph-name="Supervision-03" unicode="&#58972;" d="M48.64 859.428571A48.274286 48.274286 0 0 1 0 811.666286v-852.845715c0-26.331429 21.796571-47.689143 48.64-47.689142h1069.933714a48.274286 48.274286 0 0 1 48.566857 47.762285V811.666286A48.274286 48.274286 0 0 1 1118.573714 859.428571H48.64z m251.611429-476.379428a48.274286 48.274286 0 0 0-48.566858-47.762286 48.274286 48.274286 0 0 0-48.64 47.762286V387.657143a48.274286 48.274286 0 0 0 48.64 47.762286 48.274286 48.274286 0 0 0 48.64-47.762286v-4.534857z m437.467428 17.773714v-57.417143H630.784v-32.768h106.934857v-57.417143H630.784v-76.434285H531.675429V253.220571h-108.251429v57.417143h108.251429v32.768h-108.251429V400.822857h69.339429L378.514286 593.773714h103.277714L582.217143 423.570286 686.08 593.773714h102.765714L670.866286 400.822857h66.852571z m226.450286-17.773714a48.274286 48.274286 0 0 0-48.64-47.762286 48.274286 48.274286 0 0 0-48.64 47.762286V387.657143a48.274286 48.274286 0 0 0 48.64 47.762286 48.274286 48.274286 0 0 0 48.64-47.762286v-4.534857z"  horiz-adv-x="1170" />

    
    <glyph glyph-name="Supervision-01" unicode="&#58973;" d="M976.512 896H42.496A42.496 42.496 0 0 1 0 853.504v-711.168c0-23.424 19.072-42.496 42.496-42.496h424.64v-138.048H287.168a42.496 42.496 0 1 1 0-84.992h444.8a42.56 42.56 0 0 1 0 84.992H552v138.176h424.64a42.496 42.496 0 0 1 42.496 42.496V853.504A42.56 42.56 0 0 1 976.512 896m-166.592-236.544L719.296 548.48a42.496 42.496 0 0 0-32.896-15.616H576.64l-49.216-86.592a42.752 42.752 0 0 0-26.56-20.288l-128.896-32.32-99.84-99.84a42.432 42.432 0 0 0-60.16 60.032l108.16 108.16a43.584 43.584 0 0 0 19.712 11.136l122.688 30.72 52.352 92.288a42.496 42.496 0 0 0 36.928 21.504h114.304l77.888 95.488a42.432 42.432 0 0 0 65.92-53.632"  horiz-adv-x="1024" />

    
    <glyph glyph-name="Supervision-04" unicode="&#58974;" d="M491.690951 896v-256a36.408889 36.408889 0 0 1 36.238222-36.579556h144.952889c-159.857778 0-289.905778-131.242667-289.905778-292.579555 0-161.28 130.048-292.579556 289.905778-292.579556 37.546667 0 74.353778 7.281778 108.657778 21.390223v-131.072a36.408889 36.408889 0 0 0-36.181333-36.579556H93.127396A36.408889 36.408889 0 0 0 56.889173-91.420444V859.420444A36.408889 36.408889 0 0 0 93.127396 896h398.563555z m181.191111-365.738667c119.864889 0 217.372444-98.417778 217.372445-219.420444 0-45.681778-13.937778-88.177778-37.717334-123.335111l102.684445-103.651556a41.358222 41.358222 0 0 0 0-58.026666 41.301333 41.301333 0 0 0-57.457778 0l-102.684444 103.708444a214.584889 214.584889 0 0 0-122.197334-38.115556c-119.921778 0-217.429333 98.417778-217.429333 219.420445 0 121.002667 97.507556 219.420444 217.429333 219.420444zM564.224284 874.552889l196.096-197.973333H564.167396V874.552889z"  horiz-adv-x="1024" />

    
    <glyph glyph-name="Supervision-06" unicode="&#58975;" d="M683.392 655.552a118.336 118.336 0 0 1-118.144-118.144c0-65.216 52.992-118.208 118.144-118.208a118.336 118.336 0 0 1 118.208 118.208 118.336 118.336 0 0 1-118.208 118.144z m-206.08-500.48h412.096l-42.688 78.72c-29.76 54.848-93.888 90.24-163.328 90.24s-133.504-35.392-163.264-90.24l-42.816-78.72zM981.312 896c23.616 0 42.688-19.072 42.688-42.688v-938.624a42.624 42.624 0 0 0-42.688-42.688H342.72V896h638.592zM257.408 896v-1024H198.4A198.72 198.72 0 0 0 0 70.528V697.472A198.784 198.784 0 0 0 198.528 896h58.88z"  horiz-adv-x="1024" />

    
    <glyph glyph-name="Supervision-05" unicode="&#58976;" d="M903.68 407.36c84.096 0 152.256-70.4 152.256-157.44a158.08 158.08 0 0 0-80.896-139.136 250.048 250.048 0 0 0 176.576-200.384 33.28 33.28 0 0 0-29.76-38.208l-3.392-0.192h-430.08a33.28 33.28 0 0 0-33.088 38.4 250.048 250.048 0 0 0 176.896 200.512 158.272 158.272 0 0 0-80.64 139.008c0 87.04 68.16 157.44 152.192 157.44zM396.736 890.688c16.64 7.04 35.52 7.04 52.224 0 19.584-7.104 19.584-20.224 19.584-108.8V42.24h52.352V721.92c0.512 75.008 10.624 89.6 26.112 95.744a55.552 55.552 0 0 0 45.824 0L853.76 680.96c15.744-7.296 25.92-23.04 26.112-40.448v-186.88c-52.608-6.464-98.816-33.92-130.624-73.792l0.448 17.28a13.568 13.568 0 0 1-13.632 13.696h-75.2a13.44 13.44 0 0 1-13.568-13.696v-65.088a13.568 13.568 0 0 1 13.568-13.632h54.656a209.856 209.856 0 0 1-11.392-68.48l0.128-7.552c0.32-8.704 1.152-17.28 2.496-25.792h-45.888a13.44 13.44 0 0 1-13.568-13.632v-64a13.632 13.632 0 0 1 13.568-13.632h73.6c3.584 0 7.04 1.408 9.6 3.968l-1.152-0.896 1.6-2.112 1.536-2.048-5.632-3.584a297.216 297.216 0 0 1-127.936-181.952H19.584c-13.056 0-19.584 7.104-19.584 13.632v76.224c0 6.528 6.528 13.696 19.584 13.696h52.096V690.816a46.72 46.72 0 0 0 26.368 41.6zM307.2 216.576H232.064a13.44 13.44 0 0 1-13.568-13.632v-64a13.632 13.632 0 0 1 13.568-13.632h73.6a13.504 13.504 0 0 1 13.568 13.632l1.664 64a13.568 13.568 0 0 1-13.632 13.632z m0 194.24H232.064a13.44 13.44 0 0 1-13.568-13.696v-65.088a13.568 13.568 0 0 1 13.568-13.632h73.6a13.44 13.44 0 0 1 13.568 13.632l1.664 65.088a13.568 13.568 0 0 1-13.632 13.696z m0 193.088H232.064a13.504 13.504 0 0 1-13.568-13.696v-65.664a13.568 13.568 0 0 1 13.568-13.632h73.6a13.44 13.44 0 0 1 13.568 13.632l1.664 65.664a13.632 13.632 0 0 1-13.632 13.696z m428.8 0h-75.2a13.504 13.504 0 0 1-13.568-13.696v-65.664a13.568 13.568 0 0 1 13.568-13.632h73.6a13.44 13.44 0 0 1 13.568 13.632l1.664 65.664a13.632 13.632 0 0 1-13.632 13.696z"  horiz-adv-x="1152" />

    
    <glyph glyph-name="massage_icon1" unicode="&#58957;" d="M513.137778 126.236444c58.936889 0 106.723556-47.786667 106.723555-106.666666v-11.889778c0-58.88-47.786667-106.666667-106.666666-106.666667h-11.889778a106.666667 106.666667 0 0 0-106.609778 106.666667v11.889778c0 58.88 47.729778 106.666667 106.666667 106.666666h11.832889zM541.582222 858.055111a213.333333 213.333333 0 0 0 212.024889-189.781333l35.214222-316.871111h97.735111c39.253333 0 71.111111-31.857778 71.111112-71.111111v-26.680889c0-39.253333-31.857778-71.111111-71.111112-71.111111H128c-39.253333 0-71.111111 31.857778-71.111111 71.111111v26.737777c0 39.253333 31.857778 71.111111 71.111111 71.111112h97.792l35.214222 316.871111A213.333333 213.333333 0 0 0 473.031111 857.998222h68.494222z"  horiz-adv-x="1024" />

    
    <glyph glyph-name="cass_icon" unicode="&#58958;" d="M307.562199 857.521445A197.922309 197.922309 0 0 1 195.435481 892.044479C87.550999 892.044479 0 806.614599 0 701.216946 0 647.311276 22.820311 598.59869 59.683889 564.075656A542.348087 542.348087 0 0 0 307.635341 857.521445zM1047.97888 892.044479c-41.690952 0-80.309939-12.726712-112.126718-34.523034a544.103496 544.103496 0 0 0 247.87831-293.738357A187.828711 187.828711 0 0 1 1243.414361 700.99752C1243.414361 806.614599 1155.863362 892.044479 1047.97888 892.044479zM621.926607 895.994149a527.353973 527.353973 0 0 1-370.830048-149.941144A502.63197 502.63197 0 0 1 97.644598 384c0-136.702438 54.490806-265.286111 153.598245-362.053005A527.353973 527.353973 0 0 1 621.999749-127.994149a527.353973 527.353973 0 0 1 370.830047 149.941144A502.26626 502.26626 0 0 1 1146.281757 384a502.26626 502.26626 0 0 1-153.598245 362.053005A527.353973 527.353973 0 0 1 621.926607 895.994149z m277.20826-583.527046H591.938378a36.863579 36.863579 0 0 0-20.552908 6.14393 35.400738 35.400738 0 0 0-20.62605 32.109347V650.968378c0 19.602062 16.310671 35.766448 36.644153 35.766448 20.040914 0 36.571011-15.944961 36.57101-35.839591V384h275.306568c20.040914 0 36.571011-15.944961 36.571011-35.766448a36.278443 36.278443 0 0 0-36.571011-35.766449z"  horiz-adv-x="1243" />

    
    <glyph glyph-name="CombinedShape" unicode="&#58969;" d="M692.705882 500.374588V616.749176c0 102.821647-80.896 186.127059-180.705882 186.127059s-180.705882-83.305412-180.705882-186.127059v-116.374588h361.411764z m-451.764706 0V616.749176C240.941176 770.951529 362.315294 896 512 896s271.058824-125.048471 271.058824-279.250824v-116.374588c49.874824 0 90.352941-41.682824 90.352941-93.123764v-256C873.411765-2.951529 752.037647-128 602.352941-128h-180.705882C271.962353-128 150.588235-2.951529 150.588235 151.250824v256c0 51.440941 40.478118 93.123765 90.352941 93.123764z m316.235295-395.625412v58.910118c0 13.552941 5.722353 26.383059 15.661176 35.237647a95.111529 95.111529 0 0 1 3.011765 134.565647 88.485647 88.485647 0 0 1-127.698824 0 95.111529 95.111529 0 0 1 3.011765-134.565647c9.938824-8.854588 15.661176-21.684706 15.661176-35.237647v-58.910118c0-25.720471 20.239059-46.561882 45.176471-46.561882s45.176471 20.841412 45.176471 46.561882z"  horiz-adv-x="1024" />

    
    <glyph glyph-name="mine_icon" unicode="&#58970;" d="M511.044267 327.133867c272.384 0 496.162133-130.4576 512.8192-409.6 0.682667-11.127467 0-45.533867-42.734934-45.533867H41.3696c-14.267733 0-42.530133 30.72-41.301333 45.533867 22.050133 271.5648 242.346667 409.6 510.976 409.6zM512 896a227.5328 227.5328 0 1 0 0-455.133867A227.5328 227.5328 0 0 0 512 896z"  horiz-adv-x="1024" />

    
    <glyph glyph-name="yjzh-02" unicode="&#58968;" d="M488.727273 896a426.635636 426.635636 0 0 0 153.506909-824.878545l57.437091-113.757091H744.727273a42.635636 42.635636 0 0 0 0.372363-85.364364H232.727273a42.635636 42.635636 0 0 0-41.890909 35.002182l-0.744728 7.633454c0 20.945455 15.080727 38.446545 35.002182 41.984L232.727273-42.635636h73.448727l53.248 105.192727A426.821818 426.821818 0 0 0 488.727273 896z m0-853.364364c-14.429091 0-28.672 0.744727-42.728728 2.141091l-44.218181-87.412363h202.286545l-45.986909 90.949818c-22.528-3.723636-45.707636-5.585455-69.352727-5.585455zM147.362909 469.364364A341.364364 341.364364 0 1 1 545.792 805.888v-44.404364a42.542545 42.542545 0 0 0-42.821818-42.356363 42.635636 42.635636 0 0 0-42.821818 42.356363V809.518545a341.364364 341.364364 0 0 1-312.785455-340.154181z m355.607273 190.370909c108.637091 0 196.794182-87.412364 196.794182-195.118546A195.956364 195.956364 0 0 0 502.970182 269.498182a195.956364 195.956364 0 0 0-196.794182 195.118545c0 107.706182 88.064 195.118545 196.794182 195.118546z m0-84.898909c-61.44 0-111.243636-49.338182-111.243637-110.219637a110.778182 110.778182 0 0 1 111.243637-110.312727c61.44 0 111.243636 49.338182 111.243636 110.312727A110.778182 110.778182 0 0 1 502.970182 574.836364z"  horiz-adv-x="1024" />

    
    <glyph glyph-name="yjzh-01" unicode="&#58965;" d="M496.896 872.362667L260.522667 452.266667h147.797333v-525.141334h177.237333V452.266667h147.626667z"  horiz-adv-x="1024" />

    
    <glyph glyph-name="yjzh-04" unicode="&#58966;" d="M313.22112-12.32896h344.55552v-106.53696H313.22112zM152.90368 896c-32.3584 0-58.94144-30.9248-58.94144-68.73088v-52.18304h58.9824V827.26912H1005.9776v-594.08384h-39.81312v-57.58976h39.81312c32.39936 0 58.94144 30.9248 58.94144 68.73088V827.26912C1064.96 865.0752 1038.41792 896 1005.9776 896H152.94464zM882.60608 739.36896c31.37536 0 57.05728-29.57312 57.05728-65.69984v-557.62944c0-36.16768-25.68192-65.7408-57.05728-65.7408H57.05728C25.68192 50.29888 0 79.872 0 116.03968V673.66912c0 36.12672 25.68192 65.69984 57.05728 65.69984zM879.04256 678.912H60.66176v-462.848h818.3808v462.848zM563.8144 109.44512v-12.16512H407.1424v62.6688h156.63104v-50.50368z"  horiz-adv-x="1064" />

    
    <glyph glyph-name="yjzh-03" unicode="&#58967;" d="M438.857143 91.428571H73.142857V822.857143h731.428572v-365.714286h73.142857V833.462857A62.902857 62.902857 0 0 1 815.177143 896H62.537143A62.902857 62.902857 0 0 1 0 833.462857v-752.64A62.902857 62.902857 0 0 1 62.537143 18.285714H438.857143v73.142857z m512 512v-658.285714H292.571429v-73.142857h668.891428a62.902857 62.902857 0 0 1 62.537143 62.537143V603.428571h-73.142857z m-365.714286-512h219.428572V310.857143h-73.142858v-94.72L344.137143 603.428571H438.857143V676.571429H219.428571v-219.428572h73.142858V551.862857L679.862857 164.571429H585.142857v-73.142858z"  horiz-adv-x="1024" />

    
    <glyph glyph-name="set_icon" unicode="&#58939;" d="M820.508444 876.657778a56.888889 56.888889 0 0 0 49.265778-28.444445L1121.28 412.444444a56.888889 56.888889 0 0 0 0-56.888888l-251.562667-435.768889a56.888889 56.888889 0 0 0-49.265777-28.444445H317.269333a56.888889 56.888889 0 0 0-49.265777 28.444445L16.497778 355.555556a56.888889 56.888889 0 0 0 0 56.888888L267.946667 848.213333a56.888889 56.888889 0 0 0 49.265777 28.444445h503.239112z m-22.983111-96.654222H340.309333L111.672889 384l228.636444-395.946667h457.216L1026.161778 384l-228.636445 396.003556zM568.888889 566.044444a182.044444 182.044444 0 1 0 0-364.088888 182.044444 182.044444 0 0 0 0 364.088888z m0-96.711111a85.333333 85.333333 0 1 1 0-170.666666 85.333333 85.333333 0 0 1 0 170.666666z"  horiz-adv-x="1137" />

    
    <glyph glyph-name="message_icon" unicode="&#58940;" d="M981.0432 101.9904c-53.6064 0-113.3568 80.0768-113.3568 195.0208V483.6864c0 162.6112-136.9088 296.8576-312.7808 315.9552V857.6C554.9056 878.7456 535.7056 896 512.0512 896c-23.6544 0-42.8544-17.2544-42.8544-38.4v-57.9584c-175.872-19.0976-312.7808-153.344-312.7808-315.9552V296.96c0-114.8928-59.7504-195.0208-113.408-195.0208-23.7056 0-42.9056-17.2544-42.9056-38.4 0-21.1968 19.2-38.4 42.9056-38.4h272.6912C329.5232-62.5152 413.184-127.744 512.0512-128c100.1472 0 182.528 66.816 196.352 153.1904h272.7424c23.7056 0 42.9056 17.3056 42.8544 38.4 0 21.248-19.2 38.4512-42.9056 38.4h-0.1024zM242.1248 296.8576V483.6864c0 133.3248 121.088 241.664 269.9264 241.664 148.736 0 269.824-108.3904 269.824-241.664V296.96c0-77.4144 22.6304-146.0224 59.4432-195.0208H182.6816c36.8128 48.9984 59.4432 117.6064 59.4432 194.9696v-0.1024z m269.9264-348.16c-51.712 0.1024-96.768 31.488-109.568 76.3392h219.136c-12.9024-44.8512-57.9072-76.2368-109.568-76.3392z"  horiz-adv-x="1024" />

    
    <glyph glyph-name="zxkh-09" unicode="&#58959;" d="M1071.240533 50.107733c0-49.152-40.004267-89.088-89.224533-89.088-10.103467 0-19.592533 2.048-28.672 5.12l-0.955733 0.546134a89.838933 89.838933 0 0 0-59.665067 83.421866V406.254933h178.517333v-356.1472z m-580.266666 534.254934H223.232a44.578133 44.578133 0 1 0 0 89.019733h267.810133a44.578133 44.578133 0 1 0 0-89.019733zM312.456533 406.254933H223.163733a44.578133 44.578133 0 1 0 0 89.019734h89.2928a44.578133 44.578133 0 1 0 0-89.019734z m803.498667 89.019734h-223.232V851.490133A44.578133 44.578133 0 0 1 848.0768 896H44.578133A44.578133 44.578133 0 0 1 0 851.490133v-801.450666A178.517333 178.517333 0 0 1 178.517333-128h758.852267c5.256533 0 10.24 1.297067 14.882133 3.003733 9.762133-1.6384 19.592533-3.003733 29.764267-3.003733A178.517333 178.517333 0 0 1 1160.533333 50.107733v400.725334a44.578133 44.578133 0 0 1-44.6464 44.4416z"  horiz-adv-x="1160" />

    
    <glyph glyph-name="zxkh-08" unicode="&#58960;" d="M1001.473707 896l-205.255111-22.528 67.584-67.584-222.776889-272.327111-231.253334 213.731555a42.097778 42.097778 0 0 1-56.092444 0.568889L13.768818 440.888889a41.927111 41.927111 0 0 1-3.015111-59.107556c7.964444-8.988444 19.512889-13.482667 31.061333-13.482666a42.496 42.496 0 0 1 27.989333 10.524444l311.409778 281.315556 235.804445-217.770667c8.533333-7.964444 20.024889-11.491556 31.061333-10.979556a44.600889 44.600889 0 0 1 29.525333 15.018667l245.304889 299.804445 56.035556-56.035556L1001.473707 896zM130.39104-105.244444H30.266596a30.151111 30.151111 0 0 0-30.037334 30.037333v340.423111a30.151111 30.151111 0 0 0 30.037334 30.037333h100.124444a30.151111 30.151111 0 0 0 30.037333-30.037333v-340.423111a30.151111 30.151111 0 0 0-30.037333-30.037333zM410.739484-105.244444H310.61504a30.151111 30.151111 0 0 0-30.037333 30.037333V465.464889a30.151111 30.151111 0 0 0 30.037333 30.037333h100.124444a30.151111 30.151111 0 0 0 30.037334-30.037333v-540.672a30.151111 30.151111 0 0 0-30.037334-30.037333z m280.348445 0h-100.124445a30.151111 30.151111 0 0 0-30.037333 30.037333v390.485333a30.151111 30.151111 0 0 0 30.037333 30.037334h100.124445a30.151111 30.151111 0 0 0 30.037333-30.037334v-390.485333a30.151111 30.151111 0 0 0-30.037333-30.037333z m280.348444 0h-100.124444a30.151111 30.151111 0 0 0-30.037333 30.037333V565.589333a30.151111 30.151111 0 0 0 30.037333 30.037334h100.124444a30.151111 30.151111 0 0 0 30.037334-30.037334v-640.796444a30.151111 30.151111 0 0 0-30.037334-30.037333z"  horiz-adv-x="1024" />

    
    <glyph glyph-name="zxkh-13" unicode="&#58961;" d="M591.640462 895.996018v-270.902632c0-21.333156 17.862962-38.684122 39.821891-38.684122h180.279386c54.385325 0 98.473846-42.836976 98.473846-95.686313V-89.311327a39.253006 39.253006 0 0 0-39.82189-38.684122H153.599668a39.253006 39.253006 0 0 0-39.82189 38.684122V857.311896A39.253006 39.253006 0 0 0 153.599668 895.996018h438.040794z m79.643781-735.225873H352.70912a39.253006 39.253006 0 0 1-39.82189-38.684122c0-21.390044 17.862962-38.684122 39.82189-38.684122h318.575123a39.253006 39.253006 0 0 1 39.82189 38.684122 39.253006 39.253006 0 0 1-39.82189 38.684122z m0 270.845743a39.253006 39.253006 0 0 1-39.82189-38.684122v-154.793377c0-21.333156 17.862962-38.684122 39.82189-38.684122a39.253006 39.253006 0 0 1 39.82189 38.684122V392.931766a39.253006 39.253006 0 0 1-39.82189 38.684122z m-318.575123-77.368245a39.253006 39.253006 0 0 1-39.82189-38.684122v-77.425132c0-21.333156 17.862962-38.684122 39.82189-38.684122a39.253006 39.253006 0 0 1 39.82189 38.684122v77.368244a39.253006 39.253006 0 0 1-39.82189 38.684122zM511.996682 508.984132a39.253006 39.253006 0 0 1-39.821891-38.684122v-232.161621c0-21.333156 17.862962-38.684122 39.821891-38.684122a39.253006 39.253006 0 0 1 39.82189 38.684122V470.30001a39.253006 39.253006 0 0 1-39.82189 38.684122zM671.284243 873.354429l215.607092-209.520032H671.284243V873.29754z"  horiz-adv-x="1024" />

    
    </font>
</defs>
</svg>
